<svg xmlns="http://www.w3.org/2000/svg" xmlns:xlink="http://www.w3.org/1999/xlink" width="500" zoomAndPan="magnify" viewBox="0 0 375 374.999991" height="500" preserveAspectRatio="xMidYMid meet" version="1.0"><defs><clipPath id="fc7634931b"><path d="M 128 240 L 172 240 L 172 337.5 L 128 337.5 Z M 128 240 " clip-rule="nonzero"/></clipPath><clipPath id="37536014cd"><path d="M 85 37.5 L 215.5 37.5 L 215.5 236 L 85 236 Z M 85 37.5 " clip-rule="nonzero"/></clipPath></defs><rect x="-37.5" width="450" fill="#ffffff" y="-37.499999" height="449.999989" fill-opacity="1"/><rect x="-37.5" width="450" fill="#050a30" y="-37.499999" height="449.999989" fill-opacity="1"/><g clip-path="url(#fc7634931b)"><path fill="#f4f6fc" d="M 150.101562 505.957031 C 137.730469 505.957031 127.914062 490.441406 128.65625 472.054688 L 140.347656 240.507812 L 159.863281 240.507812 L 171.558594 472.03125 C 172.296875 490.441406 162.480469 505.957031 150.101562 505.957031 Z M 150.101562 505.957031 " fill-opacity="1" fill-rule="nonzero"/></g><g clip-path="url(#37536014cd)"><path fill="#f4f6fc" d="M 215.207031 136.488281 C 215.207031 138.105469 215.179688 139.722656 215.128906 141.339844 C 215.074219 142.957031 214.996094 144.574219 214.894531 146.183594 C 214.789062 147.792969 214.65625 149.402344 214.5 151.003906 C 214.34375 152.601562 214.164062 154.199219 213.957031 155.785156 C 213.746094 157.375 213.515625 158.953125 213.253906 160.523438 C 212.996094 162.09375 212.710938 163.652344 212.402344 165.203125 C 212.09375 166.75 211.757812 168.289062 211.402344 169.8125 C 211.042969 171.335938 210.65625 172.847656 210.25 174.34375 C 209.84375 175.835938 209.410156 177.316406 208.957031 178.78125 C 208.5 180.242188 208.019531 181.691406 207.519531 183.117188 C 207.015625 184.546875 206.492188 185.953125 205.945312 187.34375 C 205.394531 188.730469 204.824219 190.097656 204.234375 191.445312 C 203.640625 192.789062 203.027344 194.113281 202.394531 195.414062 C 201.757812 196.714844 201.105469 197.988281 200.429688 199.242188 C 199.753906 200.492188 199.054688 201.71875 198.339844 202.917969 C 197.625 204.117188 196.890625 205.289062 196.136719 206.433594 C 195.382812 207.578125 194.613281 208.695312 193.824219 209.78125 C 193.035156 210.867188 192.226562 211.925781 191.402344 212.953125 C 190.582031 213.980469 189.742188 214.976562 188.882812 215.941406 C 188.027344 216.902344 187.15625 217.835938 186.273438 218.734375 C 185.386719 219.632812 184.488281 220.5 183.574219 221.332031 C 182.660156 222.164062 181.730469 222.960938 180.792969 223.726562 C 179.851562 224.488281 178.902344 225.214844 177.9375 225.910156 C 176.976562 226.601562 176 227.257812 175.015625 227.875 C 174.03125 228.496094 173.039062 229.078125 172.035156 229.625 C 171.03125 230.167969 170.019531 230.675781 169 231.144531 C 167.980469 231.617188 166.953125 232.046875 165.921875 232.441406 C 164.886719 232.835938 163.847656 233.1875 162.804688 233.503906 C 161.757812 233.820312 160.710938 234.097656 159.65625 234.335938 C 158.601562 234.574219 157.542969 234.769531 156.484375 234.929688 C 155.421875 235.089844 154.359375 235.207031 153.296875 235.285156 C 152.234375 235.367188 151.167969 235.40625 150.101562 235.40625 C 149.039062 235.40625 147.972656 235.367188 146.90625 235.285156 C 145.84375 235.207031 144.78125 235.089844 143.722656 234.929688 C 142.660156 234.769531 141.605469 234.574219 140.550781 234.335938 C 139.496094 234.097656 138.445312 233.820312 137.402344 233.503906 C 136.355469 233.1875 135.316406 232.835938 134.285156 232.441406 C 133.25 232.046875 132.222656 231.617188 131.203125 231.144531 C 130.183594 230.675781 129.171875 230.167969 128.167969 229.625 C 127.167969 229.078125 126.171875 228.496094 125.1875 227.875 C 124.203125 227.257812 123.230469 226.601562 122.265625 225.910156 C 121.304688 225.214844 120.351562 224.488281 119.414062 223.726562 C 118.472656 222.960938 117.546875 222.164062 116.632812 221.332031 C 115.71875 220.5 114.820312 219.632812 113.933594 218.734375 C 113.046875 217.835938 112.175781 216.902344 111.320312 215.941406 C 110.464844 214.976562 109.625 213.980469 108.800781 212.953125 C 107.976562 211.925781 107.171875 210.867188 106.382812 209.78125 C 105.59375 208.695312 104.820312 207.578125 104.066406 206.433594 C 103.3125 205.289062 102.578125 204.117188 101.863281 202.917969 C 101.148438 201.71875 100.453125 200.492188 99.777344 199.242188 C 99.101562 197.988281 98.445312 196.714844 97.8125 195.414062 C 97.175781 194.113281 96.5625 192.789062 95.972656 191.445312 C 95.378906 190.097656 94.808594 188.730469 94.261719 187.34375 C 93.714844 185.953125 93.1875 184.546875 92.6875 183.117188 C 92.183594 181.691406 91.707031 180.246094 91.25 178.78125 C 90.792969 177.316406 90.363281 175.835938 89.953125 174.34375 C 89.546875 172.847656 89.164062 171.335938 88.804688 169.8125 C 88.445312 168.289062 88.113281 166.75 87.800781 165.203125 C 87.492188 163.652344 87.210938 162.09375 86.949219 160.523438 C 86.691406 158.953125 86.457031 157.375 86.25 155.785156 C 86.042969 154.199219 85.859375 152.601562 85.703125 151.003906 C 85.546875 149.402344 85.417969 147.792969 85.3125 146.183594 C 85.207031 144.574219 85.128906 142.957031 85.078125 141.339844 C 85.023438 139.722656 85 138.105469 85 136.488281 C 85 134.867188 85.023438 133.25 85.078125 131.632812 C 85.128906 130.015625 85.207031 128.402344 85.3125 126.792969 C 85.417969 125.179688 85.546875 123.574219 85.703125 121.972656 C 85.859375 120.371094 86.042969 118.777344 86.25 117.191406 C 86.457031 115.601562 86.691406 114.023438 86.949219 112.453125 C 87.210938 110.882812 87.492188 109.324219 87.800781 107.773438 C 88.113281 106.222656 88.445312 104.6875 88.804688 103.164062 C 89.164062 101.640625 89.546875 100.128906 89.953125 98.632812 C 90.363281 97.136719 90.792969 95.660156 91.25 94.195312 C 91.707031 92.730469 92.183594 91.285156 92.6875 89.859375 C 93.1875 88.429688 93.714844 87.023438 94.261719 85.632812 C 94.808594 84.246094 95.378906 82.878906 95.972656 81.53125 C 96.5625 80.1875 97.175781 78.863281 97.8125 77.5625 C 98.445312 76.261719 99.101562 74.984375 99.777344 73.734375 C 100.453125 72.484375 101.148438 71.257812 101.863281 70.058594 C 102.578125 68.859375 103.3125 67.6875 104.066406 66.542969 C 104.820312 65.398438 105.59375 64.28125 106.382812 63.195312 C 107.171875 62.105469 107.976562 61.050781 108.800781 60.023438 C 109.625 58.996094 110.464844 58 111.320312 57.035156 C 112.175781 56.070312 113.046875 55.140625 113.933594 54.242188 C 114.820312 53.339844 115.71875 52.476562 116.632812 51.644531 C 117.546875 50.8125 118.472656 50.011719 119.414062 49.25 C 120.351562 48.488281 121.304688 47.757812 122.265625 47.066406 C 123.230469 46.375 124.203125 45.71875 125.1875 45.097656 C 126.171875 44.480469 127.167969 43.898438 128.167969 43.351562 C 129.171875 42.808594 130.183594 42.300781 131.203125 41.828125 C 132.222656 41.359375 133.25 40.925781 134.285156 40.535156 C 135.316406 40.140625 136.355469 39.785156 137.402344 39.46875 C 138.445312 39.15625 139.496094 38.878906 140.550781 38.640625 C 141.605469 38.402344 142.660156 38.203125 143.722656 38.046875 C 144.78125 37.886719 145.84375 37.769531 146.90625 37.6875 C 147.972656 37.609375 149.039062 37.570312 150.101562 37.570312 C 151.167969 37.570312 152.234375 37.609375 153.296875 37.6875 C 154.359375 37.769531 155.421875 37.886719 156.484375 38.046875 C 157.542969 38.203125 158.601562 38.402344 159.65625 38.640625 C 160.710938 38.878906 161.757812 39.15625 162.804688 39.46875 C 163.847656 39.785156 164.886719 40.140625 165.921875 40.535156 C 166.953125 40.925781 167.980469 41.359375 169 41.828125 C 170.019531 42.300781 171.03125 42.808594 172.035156 43.351562 C 173.039062 43.898438 174.03125 44.480469 175.015625 45.097656 C 176 45.71875 176.976562 46.375 177.9375 47.066406 C 178.902344 47.757812 179.851562 48.488281 180.792969 49.25 C 181.730469 50.011719 182.660156 50.8125 183.574219 51.644531 C 184.488281 52.476562 185.386719 53.339844 186.273438 54.242188 C 187.15625 55.140625 188.027344 56.070312 188.882812 57.035156 C 189.742188 58 190.582031 58.996094 191.402344 60.023438 C 192.226562 61.050781 193.035156 62.105469 193.824219 63.195312 C 194.613281 64.28125 195.382812 65.398438 196.136719 66.542969 C 196.890625 67.6875 197.625 68.859375 198.339844 70.058594 C 199.054688 71.257812 199.753906 72.484375 200.429688 73.734375 C 201.105469 74.984375 201.757812 76.261719 202.394531 77.5625 C 203.027344 78.863281 203.640625 80.1875 204.234375 81.53125 C 204.824219 82.878906 205.394531 84.246094 205.945312 85.632812 C 206.492188 87.023438 207.015625 88.429688 207.519531 89.859375 C 208.019531 91.285156 208.5 92.730469 208.957031 94.195312 C 209.410156 95.660156 209.84375 97.136719 210.25 98.632812 C 210.65625 100.128906 211.042969 101.640625 211.402344 103.164062 C 211.757812 104.6875 212.09375 106.222656 212.402344 107.773438 C 212.710938 109.324219 212.996094 110.882812 213.253906 112.453125 C 213.515625 114.023438 213.746094 115.601562 213.957031 117.191406 C 214.164062 118.777344 214.34375 120.371094 214.5 121.972656 C 214.65625 123.574219 214.789062 125.179688 214.894531 126.792969 C 214.996094 128.402344 215.074219 130.015625 215.128906 131.632812 C 215.179688 133.25 215.207031 134.867188 215.207031 136.488281 Z M 215.207031 136.488281 " fill-opacity="1" fill-rule="nonzero"/></g><path fill="#f4f6fc" d="M 137.488281 230.296875 L 162.71875 230.296875 L 162.71875 237.789062 C 162.71875 238.144531 162.648438 238.488281 162.511719 238.820312 C 162.375 239.148438 162.179688 239.441406 161.929688 239.695312 C 161.675781 239.945312 161.382812 240.140625 161.054688 240.277344 C 160.722656 240.414062 160.378906 240.484375 160.023438 240.484375 L 140.183594 240.484375 C 139.824219 240.484375 139.480469 240.414062 139.152344 240.277344 C 138.820312 240.140625 138.53125 239.945312 138.277344 239.695312 C 138.023438 239.441406 137.828125 239.148438 137.691406 238.820312 C 137.554688 238.488281 137.488281 238.144531 137.488281 237.789062 Z M 137.488281 230.296875 " fill-opacity="1" fill-rule="nonzero"/><path fill="#233dff" d="M 137.277344 120.527344 C 136.949219 120.457031 136.613281 120.417969 136.265625 120.421875 C 135.128906 120.429688 134.082031 120.855469 133.28125 121.554688 L 133.25 121.546875 C 132.847656 121.546875 132.441406 121.597656 132.035156 121.707031 C 129.589844 122.371094 128.140625 124.890625 128.800781 127.335938 L 128.796875 127.335938 C 128.808594 127.492188 128.828125 127.648438 128.851562 127.800781 L 128.820312 127.796875 C 128.835938 128.296875 128.847656 129.210938 128.863281 130.535156 L 128.867188 130.609375 C 128.886719 131.316406 128.957031 132.042969 129.078125 132.785156 L 129.097656 132.886719 C 129.226562 133.601562 129.34375 134.152344 129.449219 134.53125 C 129.597656 135.082031 129.792969 135.5625 130.035156 135.96875 L 130.136719 136.132812 C 131.003906 137.457031 132.035156 138.25 133.234375 138.507812 C 133.621094 138.59375 134.027344 138.621094 134.449219 138.59375 L 134.480469 138.597656 C 134.75 138.714844 135.027344 138.804688 135.320312 138.867188 C 135.648438 138.9375 135.992188 138.976562 136.347656 138.972656 C 138.878906 138.941406 140.910156 136.867188 140.882812 134.332031 C 140.878906 133.992188 140.878906 133.757812 140.882812 133.628906 C 141 131.175781 141.050781 129.53125 141.042969 128.695312 C 141.035156 126.96875 140.976562 125.582031 140.867188 124.53125 C 140.65625 122.523438 139.175781 120.9375 137.277344 120.527344 Z M 137.277344 120.527344 " fill-opacity="1" fill-rule="nonzero"/><path fill="#233dff" d="M 167.316406 118.683594 C 166.988281 118.613281 166.652344 118.578125 166.304688 118.578125 C 165.167969 118.589844 164.121094 119.011719 163.320312 119.714844 L 163.289062 119.707031 C 162.886719 119.707031 162.480469 119.757812 162.074219 119.867188 C 159.628906 120.527344 158.179688 123.046875 158.839844 125.492188 L 158.835938 125.492188 C 158.847656 125.648438 158.867188 125.804688 158.890625 125.960938 L 158.859375 125.953125 C 158.871094 126.457031 158.886719 127.367188 158.902344 128.695312 L 158.90625 128.769531 C 158.925781 129.472656 158.996094 130.199219 159.117188 130.945312 L 159.132812 131.046875 C 159.265625 131.761719 159.382812 132.308594 159.488281 132.691406 C 159.636719 133.242188 159.832031 133.71875 160.074219 134.128906 L 160.175781 134.289062 C 161.042969 135.613281 162.074219 136.40625 163.273438 136.667969 C 163.660156 136.75 164.066406 136.777344 164.488281 136.75 L 164.519531 136.757812 C 164.789062 136.871094 165.066406 136.960938 165.359375 137.023438 C 165.6875 137.097656 166.03125 137.132812 166.382812 137.128906 C 168.917969 137.101562 170.949219 135.023438 170.921875 132.488281 C 170.917969 132.152344 170.917969 131.917969 170.921875 131.785156 C 171.039062 129.332031 171.089844 127.6875 171.082031 126.855469 C 171.074219 125.128906 171.015625 123.738281 170.90625 122.6875 C 170.695312 120.683594 169.210938 119.09375 167.316406 118.683594 Z M 167.316406 118.683594 " fill-opacity="1" fill-rule="nonzero"/><path fill="#233dff" d="M 200.859375 141.789062 C 198.445312 141.269531 196.039062 142.753906 195.4375 145.164062 C 190.203125 166.132812 177.207031 178.15625 156.449219 181.238281 L 156.429688 181.234375 C 150.234375 181.820312 143.859375 181.40625 137.304688 179.984375 C 132.570312 178.960938 127.746094 177.414062 122.824219 175.34375 L 122.8125 175.339844 C 112.355469 170.492188 105.566406 164.261719 102.445312 156.648438 C 101.847656 155.195312 100.59375 154.210938 99.164062 153.902344 C 98.289062 153.710938 97.347656 153.777344 96.457031 154.140625 C 94.113281 155.105469 92.992188 157.785156 93.953125 160.128906 C 97.984375 169.960938 106.316406 177.808594 118.949219 183.667969 L 119.09375 183.730469 C 124.605469 186.058594 130.03125 187.800781 135.371094 188.960938 C 142.941406 190.597656 150.34375 191.0625 157.574219 190.34375 L 157.796875 190.316406 C 182.601562 186.636719 198.117188 172.324219 204.34375 147.386719 C 204.957031 144.929688 203.460938 142.4375 201 141.824219 C 200.953125 141.8125 200.90625 141.800781 200.859375 141.789062 Z M 200.859375 141.789062 " fill-opacity="1" fill-rule="nonzero"/><path fill="#233dff" d="M 245.714844 70.894531 C 247.324219 71.246094 248.957031 71.988281 250.605469 73.128906 L 250.585938 73.125 C 253.757812 75.671875 255.546875 80.804688 255.949219 88.515625 C 256.027344 89.964844 256.785156 91.296875 257.996094 92.097656 C 258.476562 92.417969 259.011719 92.640625 259.5625 92.761719 C 260.394531 92.941406 261.269531 92.890625 262.089844 92.59375 C 263.941406 91.925781 265.914062 91.816406 268.003906 92.269531 C 269.503906 92.59375 271.066406 93.207031 272.691406 94.109375 L 272.683594 94.105469 C 276.476562 96.394531 278.796875 99.667969 279.636719 103.933594 L 279.628906 103.929688 C 280.324219 109.0625 279.261719 113.640625 276.433594 117.664062 L 276.136719 118.140625 C 273.816406 122.496094 268.964844 126.695312 261.589844 130.730469 L 261.558594 130.722656 C 256.496094 132.90625 251.878906 134.121094 247.710938 134.367188 L 247.675781 134.371094 C 243.773438 134.628906 237.144531 134.027344 227.792969 132.558594 C 229.320312 129.332031 230.566406 125.230469 231.539062 120.257812 L 231.507812 120.253906 C 231.5625 120.101562 231.613281 119.949219 231.664062 119.792969 C 232.816406 116.085938 232.265625 106.074219 230.011719 89.761719 L 229.976562 89.757812 C 230.015625 87.109375 230.296875 84.804688 230.820312 82.847656 L 230.871094 82.636719 C 231.808594 78.328125 234.402344 74.777344 238.652344 71.976562 L 238.632812 71.972656 C 240.953125 70.734375 243.3125 70.375 245.714844 70.894531 Z M 247.476562 61.789062 C 243.085938 60.835938 238.699219 61.53125 234.3125 63.871094 L 234 64.054688 C 227.433594 68.253906 223.402344 73.796875 221.902344 80.6875 L 221.898438 80.6875 C 221.203125 83.367188 220.835938 86.398438 220.800781 89.785156 L 220.84375 90.46875 C 222.972656 105.757812 223.660156 114.621094 222.898438 117.066406 L 222.894531 117.0625 C 222.78125 117.347656 222.691406 117.644531 222.636719 117.949219 C 220.964844 126.832031 219.011719 131.617188 216.777344 132.300781 C 214.351562 133.042969 212.988281 135.605469 213.726562 138.03125 L 213.710938 138.027344 C 214.109375 139.78125 215.5 141.117188 217.210938 141.484375 C 217.671875 141.585938 218.15625 141.617188 218.648438 141.566406 C 220.492188 141.378906 222.691406 141.339844 225.242188 141.449219 L 225.210938 141.441406 C 235.820312 143.144531 243.503906 143.839844 248.253906 143.53125 C 253.625 143.210938 259.417969 141.6875 265.636719 138.957031 L 265.996094 138.78125 C 274.730469 134.003906 280.722656 128.722656 283.972656 122.945312 L 283.941406 122.941406 C 288.210938 116.867188 289.789062 110.011719 288.683594 102.382812 L 288.644531 102.152344 C 287.261719 95.167969 283.46875 89.832031 277.257812 86.148438 L 277.144531 86.082031 C 274.679688 84.714844 272.253906 83.773438 269.871094 83.257812 C 268.09375 82.871094 266.339844 82.722656 264.609375 82.8125 C 263.4375 74.902344 260.570312 69.203125 256 65.707031 L 255.824219 65.578125 C 253.039062 63.65625 250.257812 62.390625 247.476562 61.789062 Z M 247.476562 61.789062 " fill-opacity="1" fill-rule="nonzero"/><path fill="#233dff" d="M 245.734375 70.8125 C 243.308594 70.289062 240.929688 70.652344 238.589844 71.902344 L 238.59375 71.941406 L 238.5625 71.933594 C 234.320312 74.742188 231.726562 78.304688 230.789062 82.621094 L 230.789062 82.617188 L 230.738281 82.828125 L 230.738281 82.832031 C 230.214844 84.792969 229.933594 87.105469 229.890625 89.761719 L 229.96875 89.839844 L 229.933594 89.832031 C 232.179688 106.097656 232.730469 116.078125 231.582031 119.765625 L 231.582031 119.773438 L 231.578125 119.773438 C 231.53125 119.925781 231.480469 120.078125 231.425781 120.226562 L 231.472656 120.316406 L 231.441406 120.3125 C 230.472656 125.246094 229.234375 129.316406 227.71875 132.523438 L 227.78125 132.644531 C 237.136719 134.113281 243.773438 134.714844 247.683594 134.453125 L 247.714844 134.453125 C 251.890625 134.207031 256.511719 132.992188 261.578125 130.8125 L 261.585938 130.816406 L 261.628906 130.804688 C 269.019531 126.761719 273.878906 122.554688 276.210938 118.1875 L 276.503906 117.707031 C 279.332031 113.683594 280.402344 109.109375 279.722656 103.992188 L 279.6875 103.984375 L 279.722656 103.917969 C 278.875 99.644531 276.558594 96.359375 272.765625 94.0625 L 272.730469 94.058594 L 272.730469 94.035156 C 271.101562 93.128906 269.53125 92.515625 268.023438 92.1875 C 265.914062 91.730469 263.929688 91.839844 262.0625 92.511719 C 261.257812 92.804688 260.398438 92.855469 259.578125 92.679688 C 259.042969 92.5625 258.511719 92.34375 258.042969 92.027344 C 256.855469 91.238281 256.109375 89.933594 256.035156 88.511719 C 255.632812 80.804688 253.847656 75.667969 250.675781 73.097656 L 250.644531 73.089844 L 250.652344 73.058594 C 248.996094 71.914062 247.355469 71.164062 245.734375 70.8125 Z M 245.734375 70.8125 " fill-opacity="1" fill-rule="nonzero"/></svg>