<svg xmlns="http://www.w3.org/2000/svg" xmlns:xlink="http://www.w3.org/1999/xlink" width="455" zoomAndPan="magnify" viewBox="0 0 341.25 100.499997" height="134" preserveAspectRatio="xMidYMid meet" version="1.0"><defs><g/><clipPath id="f978e9f801"><path d="M 55 51 L 127.339844 51 L 127.339844 64 L 55 64 Z M 55 51 " clip-rule="nonzero"/></clipPath><clipPath id="58cf92b821"><path d="M 0.472656 43.109375 L 53 43.109375 L 53 72.214844 L 0.472656 72.214844 Z M 0.472656 43.109375 " clip-rule="nonzero"/></clipPath><clipPath id="fd49fd4118"><path d="M 199.835938 50 L 268 50 L 268 62 L 199.835938 62 Z M 199.835938 50 " clip-rule="nonzero"/></clipPath><clipPath id="8427e082a1"><path d="M 269 38.867188 L 319.988281 38.867188 L 319.988281 72.449219 L 269 72.449219 Z M 269 38.867188 " clip-rule="nonzero"/></clipPath><clipPath id="40a2b541f9"><path d="M 90.460938 40.847656 L 236.363281 40.847656 L 236.363281 67.011719 L 90.460938 67.011719 Z M 90.460938 40.847656 " clip-rule="nonzero"/></clipPath><clipPath id="4bad6c08b1"><path d="M 0.460938 0.847656 L 146.363281 0.847656 L 146.363281 27.011719 L 0.460938 27.011719 Z M 0.460938 0.847656 " clip-rule="nonzero"/></clipPath><clipPath id="a4f53cd737"><rect x="0" width="147" y="0" height="28"/></clipPath><clipPath id="0d4ef12874"><path d="M 260 63 L 306 63 L 306 83.941406 L 260 83.941406 Z M 260 63 " clip-rule="nonzero"/></clipPath><clipPath id="0fba7a71eb"><path d="M 308 31 L 339.835938 31 L 339.835938 65 L 308 65 Z M 308 31 " clip-rule="nonzero"/></clipPath></defs><g clip-path="url(#f978e9f801)"><path fill="#1649ff" d="M 127.089844 57.542969 C 127.089844 60.886719 122.898438 63.539062 117.933594 63.339844 L 55.382812 60.171875 L 55.382812 54.894531 L 117.941406 51.730469 C 122.90625 51.535156 127.089844 54.1875 127.089844 57.542969 Z M 127.089844 57.542969 " fill-opacity="1" fill-rule="nonzero"/></g><path fill="#1649ff" d="M 52.625 60.945312 L 52.625 54.128906 L 54.65625 54.128906 C 54.855469 54.128906 55.027344 54.199219 55.171875 54.34375 C 55.3125 54.484375 55.382812 54.65625 55.382812 54.855469 L 55.382812 60.21875 C 55.382812 60.417969 55.3125 60.589844 55.171875 60.730469 C 55.027344 60.875 54.855469 60.945312 54.65625 60.945312 Z M 52.625 60.945312 " fill-opacity="1" fill-rule="nonzero"/><g clip-path="url(#58cf92b821)"><path fill="#1649ff" d="M 40.328125 42.859375 C 41.132812 42.859375 41.933594 42.9375 42.726562 43.09375 C 43.519531 43.25 44.289062 43.484375 45.035156 43.792969 C 45.78125 44.101562 46.488281 44.480469 47.160156 44.929688 C 47.832031 45.378906 48.453125 45.886719 49.023438 46.460938 C 49.59375 47.03125 50.105469 47.652344 50.554688 48.324219 C 51 48.996094 51.378906 49.703125 51.6875 50.449219 C 52 51.195312 52.230469 51.964844 52.390625 52.757812 C 52.546875 53.550781 52.625 54.347656 52.625 55.15625 L 52.625 59.917969 C 52.625 60.726562 52.546875 61.527344 52.390625 62.316406 C 52.230469 63.109375 52 63.878906 51.6875 64.625 C 51.378906 65.371094 51 66.078125 50.554688 66.75 C 50.105469 67.421875 49.59375 68.042969 49.023438 68.613281 C 48.453125 69.1875 47.832031 69.695312 47.160156 70.144531 C 46.488281 70.59375 45.78125 70.972656 45.035156 71.28125 C 44.289062 71.589844 43.519531 71.824219 42.726562 71.980469 C 41.933594 72.136719 41.132812 72.214844 40.328125 72.214844 L 2.054688 70.554688 C 1.851562 70.542969 1.652344 70.496094 1.464844 70.410156 C 1.277344 70.328125 1.109375 70.210938 0.96875 70.0625 C 0.824219 69.910156 0.714844 69.742188 0.640625 69.550781 C 0.5625 69.359375 0.523438 69.160156 0.523438 68.953125 C 0.523438 68.746094 0.5625 68.546875 0.640625 68.351562 C 0.71875 68.160156 0.828125 67.988281 0.972656 67.839844 C 1.117188 67.691406 1.285156 67.574219 1.472656 67.488281 C 1.664062 67.40625 1.859375 67.359375 2.066406 67.351562 L 34.039062 66.195312 C 34.433594 66.179688 34.746094 65.714844 34.746094 65.148438 C 34.746094 64.578125 34.429688 64.117188 34.039062 64.105469 L 2.066406 62.945312 C 1.859375 62.9375 1.664062 62.890625 1.472656 62.808594 C 1.28125 62.722656 1.117188 62.605469 0.972656 62.457031 C 0.828125 62.308594 0.71875 62.136719 0.640625 61.941406 C 0.5625 61.75 0.523438 61.550781 0.523438 61.34375 C 0.523438 61.136719 0.5625 60.9375 0.640625 60.742188 C 0.71875 60.550781 0.828125 60.378906 0.972656 60.230469 C 1.117188 60.082031 1.285156 59.964844 1.472656 59.878906 C 1.664062 59.796875 1.859375 59.75 2.066406 59.742188 L 34.039062 58.582031 C 34.433594 58.570312 34.746094 58.105469 34.746094 57.539062 C 34.746094 56.976562 34.429688 56.507812 34.039062 56.496094 L 2.066406 55.335938 C 1.859375 55.328125 1.664062 55.28125 1.472656 55.195312 C 1.285156 55.113281 1.117188 54.996094 0.972656 54.84375 C 0.828125 54.695312 0.71875 54.523438 0.640625 54.332031 C 0.5625 54.140625 0.523438 53.941406 0.523438 53.734375 C 0.523438 53.527344 0.5625 53.324219 0.640625 53.132812 C 0.71875 52.941406 0.828125 52.769531 0.972656 52.621094 C 1.117188 52.472656 1.285156 52.355469 1.472656 52.269531 C 1.664062 52.183594 1.859375 52.140625 2.066406 52.132812 L 34.039062 50.972656 C 34.433594 50.960938 34.746094 50.5 34.746094 49.929688 C 34.746094 49.359375 34.429688 48.898438 34.039062 48.882812 L 2.066406 47.722656 C 1.859375 47.714844 1.664062 47.667969 1.472656 47.585938 C 1.285156 47.5 1.117188 47.382812 0.972656 47.234375 C 0.828125 47.085938 0.71875 46.914062 0.640625 46.722656 C 0.5625 46.527344 0.523438 46.328125 0.523438 46.121094 C 0.523438 45.914062 0.5625 45.71875 0.640625 45.527344 C 0.71875 45.335938 0.828125 45.167969 0.972656 45.019531 C 1.113281 44.871094 1.277344 44.753906 1.464844 44.671875 C 1.652344 44.585938 1.851562 44.539062 2.054688 44.53125 Z M 40.328125 42.859375 " fill-opacity="1" fill-rule="nonzero"/></g><g clip-path="url(#fd49fd4118)"><path fill="#1649ff" d="M 199.988281 55.542969 C 199.988281 52.371094 203.960938 49.859375 208.671875 50.046875 L 267.976562 53.042969 L 267.976562 58.042969 L 208.679688 61.035156 C 203.960938 61.226562 199.988281 58.710938 199.988281 55.542969 Z M 199.988281 55.542969 " fill-opacity="1" fill-rule="nonzero"/></g><g clip-path="url(#8427e082a1)"><path fill="#1649ff" d="M 294.621094 72.214844 C 293.789062 72.214844 292.960938 72.191406 292.136719 72.136719 C 291.3125 72.082031 290.492188 72.003906 289.675781 71.894531 C 288.863281 71.789062 288.058594 71.65625 287.265625 71.5 C 286.472656 71.339844 285.691406 71.15625 284.925781 70.945312 C 284.15625 70.738281 283.410156 70.503906 282.675781 70.246094 C 281.945312 69.988281 281.234375 69.710938 280.542969 69.40625 C 279.855469 69.101562 279.1875 68.777344 278.546875 68.429688 C 277.90625 68.085938 277.292969 67.71875 276.703125 67.332031 C 276.117188 66.945312 275.5625 66.542969 275.035156 66.121094 C 274.507812 65.699219 274.015625 65.257812 273.554688 64.804688 C 273.09375 64.351562 272.667969 63.882812 272.277344 63.402344 C 271.882812 62.921875 271.53125 62.425781 271.210938 61.921875 C 270.894531 61.417969 270.617188 60.90625 270.375 60.382812 C 270.132812 59.859375 269.933594 59.332031 269.769531 58.792969 C 269.609375 58.257812 269.488281 57.71875 269.40625 57.175781 C 269.324219 56.632812 269.285156 56.085938 269.285156 55.542969 C 269.285156 54.996094 269.324219 54.449219 269.40625 53.90625 C 269.488281 53.363281 269.609375 52.824219 269.769531 52.289062 C 269.933594 51.753906 270.132812 51.222656 270.375 50.699219 C 270.617188 50.179688 270.894531 49.664062 271.210938 49.160156 C 271.53125 48.65625 271.882812 48.164062 272.277344 47.679688 C 272.667969 47.199219 273.09375 46.730469 273.554688 46.277344 C 274.015625 45.824219 274.507812 45.386719 275.035156 44.964844 C 275.5625 44.539062 276.117188 44.136719 276.703125 43.75 C 277.292969 43.363281 277.90625 43 278.546875 42.652344 C 279.1875 42.304688 279.855469 41.980469 280.542969 41.675781 C 281.234375 41.375 281.945312 41.09375 282.675781 40.835938 C 283.410156 40.578125 284.15625 40.34375 284.925781 40.136719 C 285.691406 39.925781 286.472656 39.742188 287.265625 39.585938 C 288.058594 39.425781 288.863281 39.292969 289.675781 39.1875 C 290.492188 39.082031 291.3125 39 292.136719 38.945312 C 292.960938 38.894531 293.789062 38.867188 294.621094 38.867188 C 295.449219 38.867188 296.277344 38.894531 297.101562 38.945312 C 297.929688 39 298.75 39.082031 299.5625 39.1875 C 300.375 39.292969 301.179688 39.425781 301.972656 39.585938 C 302.769531 39.742188 303.546875 39.925781 304.316406 40.136719 C 305.082031 40.34375 305.832031 40.578125 306.5625 40.835938 C 307.292969 41.09375 308.003906 41.375 308.695312 41.675781 C 309.386719 41.980469 310.050781 42.304688 310.691406 42.652344 C 311.332031 43 311.949219 43.363281 312.535156 43.75 C 313.121094 44.136719 313.679688 44.539062 314.203125 44.964844 C 314.730469 45.386719 315.226562 45.824219 315.6875 46.277344 C 316.148438 46.730469 316.574219 47.199219 316.964844 47.679688 C 317.355469 48.164062 317.710938 48.65625 318.027344 49.160156 C 318.34375 49.664062 318.625 50.179688 318.863281 50.699219 C 319.105469 51.222656 319.308594 51.753906 319.46875 52.289062 C 319.628906 52.824219 319.753906 53.363281 319.832031 53.90625 C 319.914062 54.449219 319.957031 54.996094 319.957031 55.542969 C 319.957031 56.085938 319.914062 56.632812 319.832031 57.175781 C 319.753906 57.71875 319.628906 58.257812 319.46875 58.792969 C 319.308594 59.332031 319.105469 59.859375 318.863281 60.382812 C 318.625 60.90625 318.34375 61.417969 318.027344 61.921875 C 317.710938 62.425781 317.355469 62.921875 316.964844 63.402344 C 316.574219 63.882812 316.148438 64.351562 315.6875 64.804688 C 315.226562 65.257812 314.730469 65.699219 314.203125 66.121094 C 313.679688 66.542969 313.121094 66.945312 312.535156 67.332031 C 311.949219 67.71875 311.332031 68.085938 310.691406 68.429688 C 310.050781 68.777344 309.386719 69.101562 308.695312 69.40625 C 308.003906 69.710938 307.292969 69.988281 306.5625 70.246094 C 305.832031 70.503906 305.082031 70.738281 304.316406 70.945312 C 303.546875 71.15625 302.769531 71.339844 301.972656 71.5 C 301.179688 71.65625 300.375 71.789062 299.5625 71.894531 C 298.75 72.003906 297.929688 72.082031 297.101562 72.136719 C 296.277344 72.191406 295.449219 72.214844 294.621094 72.214844 Z M 294.621094 72.214844 " fill-opacity="1" fill-rule="nonzero"/></g><path fill="#1649ff" d="M 270.59375 52.308594 L 270.59375 58.773438 L 268.675781 58.773438 C 268.484375 58.773438 268.320312 58.707031 268.1875 58.570312 C 268.050781 58.4375 267.984375 58.273438 267.984375 58.082031 L 267.984375 53 C 267.984375 52.808594 268.050781 52.648438 268.1875 52.511719 C 268.320312 52.378906 268.484375 52.308594 268.675781 52.308594 Z M 270.59375 52.308594 " fill-opacity="1" fill-rule="nonzero"/><g clip-path="url(#40a2b541f9)"><g transform="matrix(1, 0, 0, 1, 90, 40)"><g clip-path="url(#a4f53cd737)"><g clip-path="url(#4bad6c08b1)"><path fill="#1649ff" d="M 0.460938 0.847656 L 146.402344 0.847656 L 146.402344 27.011719 L 0.460938 27.011719 Z M 0.460938 0.847656 " fill-opacity="1" fill-rule="nonzero"/></g></g></g></g><path fill="#ffffff" d="M 277.929688 55.253906 C 277.796875 55.226562 277.660156 55.210938 277.519531 55.210938 C 277.058594 55.214844 276.636719 55.386719 276.3125 55.667969 L 276.300781 55.667969 C 276.136719 55.667969 275.972656 55.6875 275.808594 55.730469 C 274.820312 56 274.234375 57.015625 274.503906 58.003906 L 274.5 58.003906 C 274.503906 58.070312 274.511719 58.132812 274.523438 58.195312 L 274.511719 58.191406 C 274.515625 58.394531 274.523438 58.765625 274.527344 59.300781 L 274.527344 59.328125 C 274.535156 59.613281 274.566406 59.90625 274.613281 60.210938 L 274.621094 60.25 C 274.675781 60.539062 274.722656 60.761719 274.765625 60.914062 C 274.824219 61.136719 274.902344 61.332031 275 61.496094 L 275.042969 61.5625 C 275.394531 62.097656 275.808594 62.417969 276.292969 62.523438 C 276.449219 62.554688 276.613281 62.566406 276.785156 62.554688 L 276.796875 62.558594 C 276.90625 62.605469 277.019531 62.640625 277.136719 62.667969 C 277.269531 62.695312 277.410156 62.710938 277.550781 62.710938 C 278.578125 62.699219 279.398438 61.859375 279.386719 60.832031 C 279.386719 60.695312 279.386719 60.601562 279.386719 60.550781 C 279.433594 59.558594 279.453125 58.894531 279.449219 58.554688 C 279.449219 57.859375 279.425781 57.296875 279.378906 56.871094 C 279.292969 56.0625 278.695312 55.417969 277.929688 55.253906 Z M 277.929688 55.253906 " fill-opacity="1" fill-rule="nonzero"/><path fill="#ffffff" d="M 290.070312 54.507812 C 289.9375 54.480469 289.800781 54.464844 289.664062 54.464844 C 289.203125 54.46875 288.78125 54.640625 288.457031 54.925781 L 288.441406 54.921875 C 288.28125 54.921875 288.117188 54.941406 287.953125 54.988281 C 286.960938 55.253906 286.378906 56.273438 286.644531 57.261719 C 286.648438 57.324219 286.65625 57.386719 286.664062 57.449219 L 286.652344 57.445312 C 286.65625 57.648438 286.664062 58.019531 286.671875 58.554688 L 286.671875 58.585938 C 286.679688 58.871094 286.707031 59.164062 286.757812 59.464844 L 286.761719 59.507812 C 286.816406 59.796875 286.863281 60.015625 286.90625 60.171875 C 286.964844 60.394531 287.046875 60.585938 287.144531 60.75 L 287.183594 60.816406 C 287.535156 61.351562 287.953125 61.671875 288.4375 61.777344 C 288.59375 61.8125 288.757812 61.824219 288.925781 61.8125 L 288.941406 61.8125 C 289.046875 61.859375 289.160156 61.898438 289.277344 61.921875 C 289.414062 61.953125 289.550781 61.964844 289.695312 61.964844 C 290.71875 61.953125 291.539062 61.113281 291.527344 60.089844 C 291.527344 59.953125 291.527344 59.859375 291.527344 59.804688 C 291.574219 58.8125 291.597656 58.148438 291.59375 57.8125 C 291.589844 57.113281 291.566406 56.550781 291.519531 56.128906 C 291.4375 55.316406 290.835938 54.675781 290.070312 54.507812 Z M 290.070312 54.507812 " fill-opacity="1" fill-rule="nonzero"/><g clip-path="url(#0d4ef12874)"><path fill="#ffffff" d="M 303.628906 63.847656 C 302.652344 63.636719 301.679688 64.238281 301.4375 65.210938 C 299.320312 73.6875 294.066406 78.546875 285.675781 79.792969 L 285.671875 79.792969 C 283.167969 80.03125 280.589844 79.859375 277.9375 79.289062 C 276.027344 78.871094 274.074219 78.246094 272.085938 77.410156 L 272.082031 77.410156 C 267.855469 75.449219 265.109375 72.929688 263.847656 69.855469 C 263.609375 69.265625 263.101562 68.871094 262.523438 68.746094 C 262.167969 68.667969 261.789062 68.695312 261.429688 68.839844 C 260.480469 69.230469 260.027344 70.3125 260.417969 71.261719 C 262.046875 75.234375 265.414062 78.40625 270.519531 80.777344 L 270.578125 80.800781 C 272.804688 81.742188 275 82.445312 277.15625 82.914062 C 280.21875 83.578125 283.210938 83.765625 286.132812 83.476562 L 286.222656 83.464844 C 296.25 81.976562 302.519531 76.191406 305.035156 66.113281 C 305.285156 65.117188 304.679688 64.109375 303.6875 63.863281 C 303.667969 63.855469 303.648438 63.851562 303.628906 63.847656 Z M 303.628906 63.847656 " fill-opacity="1" fill-rule="nonzero"/></g><g clip-path="url(#0fba7a71eb)"><path fill="#ffffff" d="M 321.757812 35.191406 C 322.410156 35.332031 323.070312 35.632812 323.734375 36.09375 L 323.730469 36.09375 C 325.011719 37.125 325.734375 39.195312 325.898438 42.3125 C 325.925781 42.902344 326.234375 43.4375 326.722656 43.761719 C 326.917969 43.894531 327.132812 43.984375 327.355469 44.03125 C 327.691406 44.105469 328.046875 44.082031 328.378906 43.960938 C 329.128906 43.691406 329.925781 43.648438 330.769531 43.832031 C 331.375 43.964844 332.007812 44.210938 332.664062 44.574219 L 332.660156 44.574219 C 334.195312 45.5 335.132812 46.824219 335.472656 48.546875 L 335.46875 48.546875 C 335.75 50.621094 335.320312 52.46875 334.175781 54.097656 L 334.058594 54.289062 C 333.117188 56.050781 331.15625 57.746094 328.175781 59.378906 L 328.164062 59.375 C 326.117188 60.257812 324.25 60.75 322.566406 60.847656 L 322.554688 60.847656 C 320.976562 60.953125 318.296875 60.710938 314.515625 60.117188 C 315.132812 58.8125 315.636719 57.15625 316.03125 55.144531 L 316.015625 55.144531 C 316.039062 55.082031 316.058594 55.019531 316.078125 54.957031 C 316.546875 53.457031 316.324219 49.414062 315.414062 42.820312 L 315.398438 42.816406 C 315.414062 41.746094 315.527344 40.816406 315.738281 40.023438 L 315.761719 39.9375 C 316.140625 38.199219 317.1875 36.761719 318.90625 35.628906 L 318.898438 35.628906 C 319.835938 35.125 320.789062 34.980469 321.757812 35.191406 Z M 322.472656 31.511719 C 320.695312 31.128906 318.921875 31.40625 317.152344 32.355469 L 317.023438 32.425781 C 314.371094 34.125 312.742188 36.363281 312.136719 39.148438 L 312.132812 39.148438 C 311.851562 40.234375 311.703125 41.460938 311.6875 42.828125 L 311.707031 43.105469 C 312.566406 49.285156 312.84375 52.867188 312.539062 53.855469 L 312.535156 53.855469 C 312.488281 53.96875 312.453125 54.089844 312.429688 54.210938 C 311.757812 57.804688 310.964844 59.738281 310.0625 60.011719 C 309.082031 60.3125 308.53125 61.347656 308.832031 62.328125 L 308.824219 62.328125 C 308.984375 63.035156 309.546875 63.574219 310.238281 63.726562 C 310.425781 63.765625 310.621094 63.777344 310.820312 63.757812 C 311.566406 63.683594 312.453125 63.667969 313.484375 63.710938 L 313.472656 63.707031 C 317.761719 64.394531 320.867188 64.679688 322.785156 64.550781 C 324.957031 64.421875 327.296875 63.808594 329.8125 62.703125 L 329.957031 62.632812 C 333.488281 60.699219 335.910156 58.566406 337.222656 56.230469 L 337.210938 56.230469 C 338.9375 53.773438 339.574219 51.003906 339.128906 47.921875 L 339.113281 47.828125 C 338.554688 45.003906 337.019531 42.847656 334.511719 41.359375 L 334.464844 41.332031 C 333.46875 40.777344 332.488281 40.398438 331.523438 40.1875 C 330.804688 40.035156 330.097656 39.972656 329.394531 40.007812 C 328.925781 36.8125 327.765625 34.507812 325.917969 33.09375 L 325.847656 33.042969 C 324.722656 32.265625 323.597656 31.753906 322.472656 31.511719 Z M 322.472656 31.511719 " fill-opacity="1" fill-rule="nonzero"/></g><path fill="#ffffff" d="M 321.765625 35.160156 C 320.789062 34.945312 319.824219 35.09375 318.878906 35.601562 L 318.882812 35.617188 L 318.867188 35.613281 C 317.152344 36.746094 316.105469 38.1875 315.726562 39.933594 L 315.726562 39.929688 L 315.707031 40.015625 C 315.496094 40.808594 315.378906 41.742188 315.363281 42.816406 L 315.394531 42.847656 L 315.382812 42.847656 C 316.289062 49.421875 316.511719 53.453125 316.046875 54.945312 L 316.046875 54.949219 C 316.027344 55.011719 316.007812 55.070312 315.984375 55.132812 L 316.003906 55.167969 L 315.992188 55.167969 C 315.597656 57.160156 315.097656 58.808594 314.484375 60.101562 L 314.511719 60.152344 C 318.292969 60.746094 320.976562 60.988281 322.554688 60.882812 L 322.570312 60.882812 L 322.566406 60.882812 C 324.257812 60.78125 326.125 60.292969 328.171875 59.410156 L 328.175781 59.414062 L 328.191406 59.410156 C 331.179688 57.773438 333.144531 56.074219 334.085938 54.308594 L 334.207031 54.113281 C 335.347656 52.488281 335.78125 50.640625 335.503906 48.570312 L 335.492188 48.566406 L 335.503906 48.539062 C 335.164062 46.8125 334.226562 45.484375 332.695312 44.558594 L 332.679688 44.554688 L 332.679688 44.546875 C 332.019531 44.179688 331.386719 43.929688 330.777344 43.796875 C 329.925781 43.613281 329.121094 43.65625 328.367188 43.929688 C 328.042969 44.046875 327.695312 44.070312 327.363281 43.996094 C 327.148438 43.949219 326.933594 43.859375 326.742188 43.734375 C 326.261719 43.414062 325.960938 42.886719 325.929688 42.3125 C 325.769531 39.199219 325.046875 37.121094 323.765625 36.082031 L 323.753906 36.078125 L 323.753906 36.066406 C 323.085938 35.601562 322.421875 35.300781 321.765625 35.160156 Z M 321.765625 35.160156 " fill-opacity="1" fill-rule="nonzero"/><g fill="#1649ff" fill-opacity="1"><g transform="translate(71.776771, 64.81946)"><g><path d="M 18.777344 -13.613281 C 18.777344 -13.394531 18.789062 -13.210938 18.808594 -13.0625 C 18.816406 -13.027344 18.820312 -13 18.824219 -12.980469 C 18.824219 -12.984375 18.820312 -13 18.8125 -13.019531 C 18.695312 -13.355469 18.464844 -13.679688 18.117188 -13.988281 C 17.996094 -14.097656 17.855469 -14.179688 17.699219 -14.234375 C 17.65625 -14.25 17.621094 -14.257812 17.59375 -14.265625 C 17.617188 -14.261719 17.65625 -14.257812 17.714844 -14.257812 L 23.011719 -14.257812 L 25.074219 -11.886719 C 26.902344 -9.78125 27.820312 -7.011719 27.820312 -3.574219 C 27.820312 -2.074219 27.5625 -0.605469 27.046875 0.832031 C 26.5 2.351562 25.789062 3.605469 24.917969 4.582031 L 22.859375 6.898438 L 17.609375 6.898438 C 10.828125 6.898438 5.539062 5.1875 1.742188 1.761719 C -2.265625 -1.851562 -4.269531 -7.152344 -4.269531 -14.140625 L -4.269531 -37.292969 L 1.394531 -38.324219 C 1.894531 -38.414062 2.601562 -38.519531 3.523438 -38.640625 C 4.625 -38.785156 5.726562 -38.855469 6.832031 -38.855469 C 7.960938 -38.855469 9.023438 -38.769531 10.023438 -38.597656 C 11.554688 -38.335938 12.929688 -37.816406 14.152344 -37.03125 C 15.683594 -36.050781 16.867188 -34.703125 17.695312 -32.992188 C 18.417969 -31.5 18.777344 -29.804688 18.777344 -27.910156 Z M 4.980469 -13.613281 L 4.980469 -27.910156 C 4.980469 -27.921875 4.980469 -27.929688 4.980469 -27.9375 C 4.980469 -27.933594 4.980469 -27.929688 4.980469 -27.921875 C 4.984375 -27.882812 4.992188 -27.832031 5.003906 -27.773438 C 5.050781 -27.519531 5.140625 -27.257812 5.273438 -26.980469 C 5.578125 -26.355469 6.058594 -25.832031 6.714844 -25.410156 C 7.0625 -25.1875 7.386719 -25.050781 7.691406 -25 C 7.464844 -25.039062 7.175781 -25.058594 6.832031 -25.058594 C 6.324219 -25.058594 5.816406 -25.023438 5.308594 -24.957031 C 4.617188 -24.867188 4.132812 -24.796875 3.863281 -24.75 L 2.628906 -31.535156 L 9.527344 -31.535156 L 9.527344 -14.140625 C 9.527344 -12.441406 9.710938 -11.0625 10.082031 -9.996094 C 10.316406 -9.320312 10.613281 -8.816406 10.980469 -8.488281 C 11.453125 -8.0625 12.132812 -7.714844 13.015625 -7.449219 C 14.246094 -7.082031 15.777344 -6.898438 17.609375 -6.898438 L 19.761719 -6.898438 L 19.761719 0 L 14.605469 -4.582031 C 14.375 -4.324219 14.195312 -4.070312 14.066406 -3.824219 L 14.058594 -3.828125 C 14.03125 -3.757812 14.019531 -3.675781 14.019531 -3.574219 C 14.019531 -3.734375 14.015625 -3.867188 14 -3.96875 L 14.007812 -3.960938 C 14.113281 -3.589844 14.328125 -3.214844 14.660156 -2.832031 L 19.867188 -7.359375 L 19.867188 -0.460938 L 17.714844 -0.460938 C 16.085938 -0.460938 14.554688 -0.710938 13.113281 -1.21875 C 11.566406 -1.765625 10.179688 -2.582031 8.949219 -3.671875 C 7.5 -4.960938 6.441406 -6.574219 5.773438 -8.503906 C 5.242188 -10.03125 4.980469 -11.734375 4.980469 -13.613281 Z M 4.980469 -13.613281 "/></g></g></g><g fill="#1649ff" fill-opacity="1"><g transform="translate(88.857141, 64.81946)"><g><path d="M -2.109375 5.695312 C -3.757812 4.566406 -5.058594 3.046875 -6.011719 1.140625 C -6.917969 -0.671875 -7.371094 -2.628906 -7.371094 -4.730469 C -7.371094 -6.296875 -7.15625 -7.820312 -6.730469 -9.289062 L -5.28125 -14.257812 L 2.207031 -14.257812 C 2.144531 -14.257812 2.074219 -14.242188 1.992188 -14.210938 C 1.6875 -14.097656 1.429688 -13.929688 1.222656 -13.707031 C 1.113281 -13.59375 1.03125 -13.484375 0.972656 -13.382812 C 0.964844 -13.371094 0.960938 -13.363281 0.960938 -13.359375 C 0.972656 -13.382812 0.984375 -13.414062 0.996094 -13.453125 C 1.058594 -13.632812 1.089844 -13.984375 1.089844 -14.507812 C 1.089844 -15.273438 1.082031 -16.164062 1.066406 -17.175781 C 1.050781 -18.039062 1.015625 -18.722656 0.964844 -19.234375 L 0.375 -25.167969 L 6.160156 -26.613281 C 7.039062 -26.832031 7.882812 -27.011719 8.695312 -27.148438 C 9.699219 -27.3125 10.746094 -27.398438 11.828125 -27.398438 C 15.484375 -27.398438 18.40625 -26.414062 20.59375 -24.445312 C 22.992188 -22.285156 24.191406 -19.027344 24.191406 -14.664062 C 24.191406 -11.785156 23.789062 -9.0625 22.980469 -6.496094 L 16.398438 -8.566406 L 20.605469 -14.035156 C 20.332031 -14.246094 20.082031 -14.398438 19.855469 -14.488281 C 19.882812 -14.476562 19.96875 -14.453125 20.113281 -14.421875 C 20.582031 -14.3125 20.957031 -14.257812 21.234375 -14.257812 L 25.640625 -14.257812 L 27.703125 -11.886719 C 29.53125 -9.78125 30.445312 -7.011719 30.445312 -3.574219 C 30.445312 -2.164062 30.234375 -0.789062 29.8125 0.554688 C 29.386719 1.894531 28.851562 3.027344 28.199219 3.957031 L 26.140625 6.898438 L 22.179688 6.898438 C 16.382812 6.898438 11.746094 5.492188 8.273438 2.683594 L 12.613281 -2.679688 L 16.996094 2.648438 C 13.550781 5.480469 9.289062 6.898438 4.203125 6.898438 L -0.347656 6.898438 Z M 5.683594 -5.695312 L 1.785156 0 L 1.785156 -6.898438 L 4.203125 -6.898438 C 5.988281 -6.898438 7.332031 -7.269531 8.230469 -8.007812 L 12.578125 -11.585938 L 16.957031 -8.042969 C 17.320312 -7.746094 17.84375 -7.503906 18.523438 -7.3125 C 19.507812 -7.039062 20.726562 -6.898438 22.179688 -6.898438 L 22.546875 -6.898438 L 22.546875 0 L 16.894531 -3.957031 C 16.769531 -3.773438 16.671875 -3.609375 16.609375 -3.464844 L 16.605469 -3.464844 C 16.621094 -3.503906 16.636719 -3.546875 16.652344 -3.601562 C 16.648438 -3.589844 16.648438 -3.582031 16.648438 -3.574219 C 16.648438 -3.734375 16.640625 -3.867188 16.628906 -3.96875 L 16.636719 -3.960938 C 16.738281 -3.589844 16.957031 -3.214844 17.289062 -2.832031 L 22.496094 -7.359375 L 22.496094 -0.460938 L 21.234375 -0.460938 C 19.902344 -0.460938 18.488281 -0.632812 16.992188 -0.980469 C 15.039062 -1.433594 13.441406 -2.140625 12.191406 -3.097656 L 8.371094 -6.039062 L 9.816406 -10.640625 C 10.203125 -11.855469 10.394531 -13.199219 10.394531 -14.664062 C 10.394531 -15.183594 10.371094 -15.523438 10.324219 -15.6875 C 10.363281 -15.546875 10.433594 -15.386719 10.539062 -15.203125 C 10.746094 -14.835938 11.019531 -14.496094 11.363281 -14.1875 C 11.71875 -13.871094 12.0625 -13.664062 12.394531 -13.566406 C 12.320312 -13.589844 12.128906 -13.597656 11.828125 -13.597656 C 11.507812 -13.597656 11.21875 -13.578125 10.964844 -13.535156 C 10.511719 -13.460938 10.027344 -13.359375 9.503906 -13.226562 L 7.832031 -19.921875 L 14.695312 -20.605469 C 14.785156 -19.714844 14.839844 -18.648438 14.863281 -17.40625 C 14.878906 -16.316406 14.886719 -15.351562 14.886719 -14.507812 C 14.886719 -12.4375 14.605469 -10.582031 14.035156 -8.9375 C 13.398438 -7.101562 12.484375 -5.542969 11.289062 -4.269531 C 10.027344 -2.925781 8.542969 -1.933594 6.835938 -1.292969 C 5.355469 -0.738281 3.8125 -0.460938 2.207031 -0.460938 L -0.105469 -0.460938 L -0.105469 -7.359375 L 6.519531 -5.425781 C 6.457031 -5.214844 6.425781 -4.984375 6.425781 -4.730469 C 6.425781 -4.800781 6.394531 -4.898438 6.328125 -5.03125 C 6.214844 -5.253906 6 -5.476562 5.683594 -5.695312 Z M 11.878906 -16.226562 C 10.40625 -16.226562 9.023438 -16.464844 7.730469 -16.945312 C 6.292969 -17.476562 5.023438 -18.277344 3.929688 -19.351562 C 2.863281 -20.390625 2.054688 -21.578125 1.496094 -22.917969 C 0.945312 -24.238281 0.667969 -25.640625 0.667969 -27.121094 C 0.667969 -28.652344 0.953125 -30.089844 1.523438 -31.433594 C 2.121094 -32.84375 2.996094 -34.074219 4.148438 -35.128906 C 5.226562 -36.117188 6.449219 -36.859375 7.808594 -37.363281 C 9.089844 -37.832031 10.445312 -38.066406 11.878906 -38.066406 C 13.308594 -38.066406 14.667969 -37.832031 15.949219 -37.363281 C 17.308594 -36.859375 18.53125 -36.117188 19.609375 -35.128906 C 20.761719 -34.074219 21.636719 -32.84375 22.234375 -31.433594 C 22.804688 -30.089844 23.089844 -28.652344 23.089844 -27.121094 C 23.089844 -25.660156 22.820312 -24.273438 22.289062 -22.96875 C 21.746094 -21.632812 20.953125 -20.445312 19.910156 -19.40625 C 18.808594 -18.300781 17.519531 -17.480469 16.039062 -16.9375 C 14.75 -16.464844 13.359375 -16.226562 11.878906 -16.226562 Z M 11.878906 -30.027344 C 11.726562 -30.027344 11.53125 -29.980469 11.289062 -29.894531 C 10.863281 -29.738281 10.484375 -29.492188 10.152344 -29.160156 C 9.882812 -28.890625 9.667969 -28.5625 9.511719 -28.175781 C 9.363281 -27.8125 9.289062 -27.460938 9.289062 -27.121094 C 9.289062 -26.785156 9.367188 -26.425781 9.527344 -26.054688 C 9.710938 -25.617188 9.96875 -25.25 10.296875 -24.949219 C 10.554688 -24.714844 10.851562 -24.535156 11.1875 -24.410156 C 11.441406 -24.316406 11.671875 -24.269531 11.878906 -24.269531 C 12.085938 -24.269531 12.316406 -24.316406 12.570312 -24.410156 C 12.90625 -24.535156 13.203125 -24.714844 13.460938 -24.949219 C 13.789062 -25.25 14.046875 -25.617188 14.230469 -26.054688 C 14.390625 -26.429688 14.46875 -26.785156 14.46875 -27.121094 C 14.46875 -27.480469 14.390625 -27.847656 14.234375 -28.222656 C 14.070312 -28.617188 13.851562 -28.945312 13.574219 -29.214844 C 13.269531 -29.515625 12.914062 -29.738281 12.515625 -29.886719 C 12.265625 -29.980469 12.054688 -30.027344 11.878906 -30.027344 Z M 11.878906 -30.027344 "/></g></g></g><g fill="#1649ff" fill-opacity="1"><g transform="translate(109.458688, 64.81946)"><g><path d="M 2.734375 -14.257812 C 2.558594 -14.257812 2.339844 -14.195312 2.078125 -14.066406 C 1.757812 -13.90625 1.511719 -13.710938 1.339844 -13.480469 C 1.320312 -13.453125 1.308594 -13.433594 1.304688 -13.421875 C 1.324219 -13.46875 1.347656 -13.53125 1.367188 -13.613281 C 1.464844 -13.96875 1.511719 -14.441406 1.511719 -15.03125 C 1.511719 -16.703125 1.476562 -18.160156 1.414062 -19.410156 C 1.347656 -20.703125 1.28125 -21.734375 1.21875 -22.5 L 0.730469 -28.34375 L 6.421875 -29.769531 C 7.40625 -30.011719 8.410156 -30.199219 9.433594 -30.320312 C 10.441406 -30.4375 11.378906 -30.5 12.246094 -30.5 C 13.667969 -30.5 15 -30.339844 16.246094 -30.019531 C 18.375 -29.472656 20.171875 -28.320312 21.632812 -26.554688 C 22.835938 -25.105469 23.691406 -23.277344 24.199219 -21.078125 C 24.578125 -19.429688 24.769531 -17.394531 24.769531 -14.980469 C 24.769531 -8.339844 22.898438 -3.054688 19.160156 0.871094 C 17.203125 2.925781 14.878906 4.460938 12.1875 5.480469 C 9.6875 6.425781 6.921875 6.898438 3.890625 6.898438 L -0.347656 6.898438 L -2.109375 5.695312 C -3.757812 4.566406 -5.058594 3.046875 -6.011719 1.140625 C -6.917969 -0.671875 -7.371094 -2.628906 -7.371094 -4.730469 C -7.371094 -6.296875 -7.15625 -7.820312 -6.730469 -9.289062 L -5.28125 -14.257812 Z M 2.734375 -0.460938 L -0.105469 -0.460938 L -0.105469 -7.359375 L 6.519531 -5.425781 C 6.457031 -5.214844 6.425781 -4.984375 6.425781 -4.730469 C 6.425781 -4.800781 6.394531 -4.898438 6.328125 -5.03125 C 6.214844 -5.253906 6 -5.476562 5.683594 -5.695312 L 1.785156 0 L 1.785156 -6.898438 L 3.890625 -6.898438 C 5.238281 -6.898438 6.375 -7.074219 7.300781 -7.425781 C 8.035156 -7.703125 8.65625 -8.109375 9.167969 -8.648438 C 10.371094 -9.910156 10.972656 -12.019531 10.972656 -14.980469 C 10.972656 -16.347656 10.898438 -17.347656 10.753906 -17.976562 C 10.71875 -18.121094 10.695312 -18.21875 10.675781 -18.257812 C 10.742188 -18.109375 10.851562 -17.941406 11.007812 -17.753906 C 11.453125 -17.214844 12.054688 -16.851562 12.820312 -16.652344 C 12.699219 -16.683594 12.507812 -16.699219 12.246094 -16.699219 C 11.925781 -16.699219 11.53125 -16.671875 11.066406 -16.617188 C 10.617188 -16.5625 10.1875 -16.484375 9.769531 -16.382812 L 8.09375 -23.074219 L 14.96875 -23.648438 C 15.046875 -22.734375 15.121094 -21.554688 15.195312 -20.117188 C 15.269531 -18.632812 15.308594 -16.9375 15.308594 -15.03125 C 15.308594 -11.148438 14.367188 -7.917969 12.480469 -5.335938 C 11.3125 -3.738281 9.871094 -2.519531 8.15625 -1.675781 C 6.503906 -0.863281 4.695312 -0.460938 2.734375 -0.460938 Z M 14.296875 -19.90625 C 12.824219 -19.90625 11.4375 -20.152344 10.140625 -20.644531 C 8.710938 -21.1875 7.453125 -22 6.371094 -23.082031 C 5.328125 -24.125 4.535156 -25.3125 3.992188 -26.648438 C 3.457031 -27.953125 3.191406 -29.339844 3.191406 -30.800781 C 3.191406 -32.3125 3.46875 -33.734375 4.019531 -35.066406 C 4.601562 -36.46875 5.460938 -37.703125 6.589844 -38.757812 C 7.65625 -39.757812 8.867188 -40.511719 10.21875 -41.019531 C 11.503906 -41.503906 12.863281 -41.746094 14.296875 -41.746094 C 15.742188 -41.746094 17.105469 -41.507812 18.386719 -41.027344 C 19.777344 -40.507812 21.007812 -39.734375 22.085938 -38.707031 C 23.195312 -37.648438 24.03125 -36.417969 24.601562 -35.015625 C 25.132812 -33.699219 25.402344 -32.292969 25.402344 -30.800781 C 25.402344 -29.378906 25.152344 -28.027344 24.65625 -26.75 C 24.140625 -25.425781 23.386719 -24.242188 22.386719 -23.199219 C 21.289062 -22.046875 19.988281 -21.191406 18.480469 -20.628906 C 17.1875 -20.148438 15.792969 -19.90625 14.296875 -19.90625 Z M 14.296875 -33.707031 C 14.132812 -33.707031 13.921875 -33.65625 13.660156 -33.558594 C 13.1875 -33.382812 12.769531 -33.105469 12.40625 -32.726562 C 12.144531 -32.453125 11.941406 -32.128906 11.796875 -31.75 C 11.667969 -31.417969 11.601562 -31.101562 11.601562 -30.800781 C 11.601562 -30.5 11.671875 -30.175781 11.8125 -29.832031 C 11.984375 -29.402344 12.234375 -29.035156 12.550781 -28.730469 C 12.839844 -28.453125 13.175781 -28.246094 13.554688 -28.101562 C 13.832031 -28 14.078125 -27.949219 14.296875 -27.949219 C 14.539062 -27.949219 14.804688 -28.003906 15.089844 -28.109375 C 15.441406 -28.242188 15.75 -28.433594 16.011719 -28.675781 C 16.335938 -28.980469 16.589844 -29.347656 16.769531 -29.78125 C 16.917969 -30.140625 16.992188 -30.480469 16.992188 -30.800781 C 16.992188 -31.140625 16.917969 -31.492188 16.769531 -31.851562 C 16.613281 -32.242188 16.398438 -32.570312 16.125 -32.839844 C 15.8125 -33.152344 15.449219 -33.390625 15.035156 -33.546875 C 14.753906 -33.652344 14.507812 -33.707031 14.296875 -33.707031 Z M 4.363281 -19.90625 C 2.890625 -19.90625 1.503906 -20.152344 0.207031 -20.644531 C -1.222656 -21.1875 -2.480469 -22 -3.566406 -23.082031 C -4.605469 -24.125 -5.398438 -25.3125 -5.941406 -26.648438 C -6.476562 -27.953125 -6.742188 -29.339844 -6.742188 -30.800781 C -6.742188 -32.3125 -6.464844 -33.734375 -5.914062 -35.066406 C -5.332031 -36.46875 -4.476562 -37.703125 -3.34375 -38.757812 C -2.277344 -39.757812 -1.066406 -40.511719 0.285156 -41.019531 C 1.570312 -41.503906 2.929688 -41.746094 4.363281 -41.746094 C 5.808594 -41.746094 7.171875 -41.507812 8.453125 -41.027344 C 9.84375 -40.507812 11.074219 -39.734375 12.152344 -38.707031 C 13.257812 -37.648438 14.097656 -36.417969 14.664062 -35.015625 C 15.199219 -33.699219 15.46875 -32.292969 15.46875 -30.800781 C 15.46875 -29.378906 15.21875 -28.027344 14.722656 -26.75 C 14.207031 -25.425781 13.453125 -24.242188 12.453125 -23.199219 C 11.355469 -22.046875 10.054688 -21.191406 8.546875 -20.628906 C 7.253906 -20.148438 5.859375 -19.90625 4.363281 -19.90625 Z M 4.363281 -33.707031 C 4.199219 -33.707031 3.988281 -33.65625 3.726562 -33.558594 C 3.253906 -33.382812 2.835938 -33.105469 2.472656 -32.726562 C 2.210938 -32.453125 2.007812 -32.128906 1.859375 -31.75 C 1.734375 -31.417969 1.667969 -31.101562 1.667969 -30.800781 C 1.667969 -30.5 1.738281 -30.175781 1.878906 -29.832031 C 2.050781 -29.402344 2.296875 -29.035156 2.617188 -28.730469 C 2.90625 -28.453125 3.242188 -28.246094 3.621094 -28.101562 C 3.898438 -28 4.144531 -27.949219 4.363281 -27.949219 C 4.605469 -27.949219 4.871094 -28.003906 5.15625 -28.109375 C 5.507812 -28.242188 5.816406 -28.433594 6.078125 -28.675781 C 6.402344 -28.980469 6.652344 -29.347656 6.832031 -29.78125 C 6.984375 -30.140625 7.058594 -30.480469 7.058594 -30.800781 C 7.058594 -31.140625 6.984375 -31.492188 6.835938 -31.851562 C 6.679688 -32.242188 6.464844 -32.570312 6.191406 -32.839844 C 5.878906 -33.152344 5.515625 -33.390625 5.101562 -33.546875 C 4.820312 -33.652344 4.574219 -33.707031 4.363281 -33.707031 Z M 4.363281 -33.707031 "/></g></g></g><g fill="#1649ff" fill-opacity="1"><g transform="translate(129.429576, 64.81946)"><g><path d="M 18.777344 -13.613281 C 18.777344 -13.394531 18.789062 -13.210938 18.808594 -13.0625 C 18.816406 -13.027344 18.820312 -13 18.824219 -12.980469 C 18.824219 -12.984375 18.820312 -13 18.8125 -13.019531 C 18.695312 -13.355469 18.464844 -13.679688 18.117188 -13.988281 C 17.996094 -14.097656 17.855469 -14.179688 17.699219 -14.234375 C 17.65625 -14.25 17.621094 -14.257812 17.59375 -14.265625 C 17.617188 -14.261719 17.65625 -14.257812 17.714844 -14.257812 L 23.011719 -14.257812 L 25.074219 -11.886719 C 26.902344 -9.78125 27.820312 -7.011719 27.820312 -3.574219 C 27.820312 -2.074219 27.5625 -0.605469 27.046875 0.832031 C 26.5 2.351562 25.789062 3.605469 24.917969 4.582031 L 22.859375 6.898438 L 17.609375 6.898438 C 10.828125 6.898438 5.539062 5.1875 1.742188 1.761719 C -2.265625 -1.851562 -4.269531 -7.152344 -4.269531 -14.140625 L -4.269531 -37.292969 L 1.394531 -38.324219 C 1.894531 -38.414062 2.601562 -38.519531 3.523438 -38.640625 C 4.625 -38.785156 5.726562 -38.855469 6.832031 -38.855469 C 7.960938 -38.855469 9.023438 -38.769531 10.023438 -38.597656 C 11.554688 -38.335938 12.929688 -37.816406 14.152344 -37.03125 C 15.683594 -36.050781 16.867188 -34.703125 17.695312 -32.992188 C 18.417969 -31.5 18.777344 -29.804688 18.777344 -27.910156 Z M 4.980469 -13.613281 L 4.980469 -27.910156 C 4.980469 -27.921875 4.980469 -27.929688 4.980469 -27.9375 C 4.980469 -27.933594 4.980469 -27.929688 4.980469 -27.921875 C 4.984375 -27.882812 4.992188 -27.832031 5.003906 -27.773438 C 5.050781 -27.519531 5.140625 -27.257812 5.273438 -26.980469 C 5.578125 -26.355469 6.058594 -25.832031 6.714844 -25.410156 C 7.0625 -25.1875 7.386719 -25.050781 7.691406 -25 C 7.464844 -25.039062 7.175781 -25.058594 6.832031 -25.058594 C 6.324219 -25.058594 5.816406 -25.023438 5.308594 -24.957031 C 4.617188 -24.867188 4.132812 -24.796875 3.863281 -24.75 L 2.628906 -31.535156 L 9.527344 -31.535156 L 9.527344 -14.140625 C 9.527344 -12.441406 9.710938 -11.0625 10.082031 -9.996094 C 10.316406 -9.320312 10.613281 -8.816406 10.980469 -8.488281 C 11.453125 -8.0625 12.132812 -7.714844 13.015625 -7.449219 C 14.246094 -7.082031 15.777344 -6.898438 17.609375 -6.898438 L 19.761719 -6.898438 L 19.761719 0 L 14.605469 -4.582031 C 14.375 -4.324219 14.195312 -4.070312 14.066406 -3.824219 L 14.058594 -3.828125 C 14.03125 -3.757812 14.019531 -3.675781 14.019531 -3.574219 C 14.019531 -3.734375 14.015625 -3.867188 14 -3.96875 L 14.007812 -3.960938 C 14.113281 -3.589844 14.328125 -3.214844 14.660156 -2.832031 L 19.867188 -7.359375 L 19.867188 -0.460938 L 17.714844 -0.460938 C 16.085938 -0.460938 14.554688 -0.710938 13.113281 -1.21875 C 11.566406 -1.765625 10.179688 -2.582031 8.949219 -3.671875 C 7.5 -4.960938 6.441406 -6.574219 5.773438 -8.503906 C 5.242188 -10.03125 4.980469 -11.734375 4.980469 -13.613281 Z M 4.980469 -13.613281 "/></g></g></g><g fill="#1649ff" fill-opacity="1"><g transform="translate(146.509946, 64.81946)"><g><path d="M 12.652344 -13.242188 C 12.621094 -13.230469 12.597656 -13.214844 12.582031 -13.203125 C 12.609375 -13.222656 12.644531 -13.261719 12.691406 -13.320312 C 12.46875 -13.054688 12.3125 -12.773438 12.21875 -12.484375 C 12.199219 -12.414062 12.183594 -12.355469 12.175781 -12.308594 C 12.179688 -12.320312 12.179688 -12.355469 12.179688 -12.40625 C 12.179688 -12.425781 12.179688 -12.445312 12.179688 -12.460938 C 12.179688 -12.457031 12.179688 -12.449219 12.179688 -12.441406 C 12.191406 -12.367188 12.210938 -12.285156 12.238281 -12.1875 C 12.355469 -11.808594 12.554688 -11.445312 12.84375 -11.101562 C 13.195312 -10.683594 13.640625 -10.347656 14.171875 -10.105469 C 14.671875 -9.875 15.167969 -9.761719 15.664062 -9.761719 C 16.003906 -9.761719 16.347656 -9.828125 16.695312 -9.960938 C 17.03125 -10.089844 17.316406 -10.261719 17.558594 -10.472656 C 18.054688 -10.914062 18.40625 -11.421875 18.613281 -11.992188 C 18.664062 -12.144531 18.703125 -12.28125 18.71875 -12.402344 L 18.726562 -12.40625 C 18.726562 -12.597656 18.660156 -12.785156 18.523438 -12.976562 C 18.503906 -13.007812 18.453125 -13.054688 18.378906 -13.117188 C 18.234375 -13.230469 18.078125 -13.320312 17.898438 -13.390625 L 15.453125 -6.9375 Z M 18.253906 -0.632812 L 15.660156 0.519531 L 13.007812 -0.488281 C 10.667969 -1.375 8.742188 -2.894531 7.230469 -5.050781 C 5.695312 -7.238281 4.925781 -9.691406 4.925781 -12.40625 C 4.925781 -13.9375 5.15625 -15.351562 5.617188 -16.640625 C 6.210938 -18.289062 7.136719 -19.675781 8.40625 -20.800781 C 9.417969 -21.695312 10.539062 -22.378906 11.765625 -22.851562 C 13.007812 -23.324219 14.304688 -23.5625 15.664062 -23.5625 C 17.171875 -23.5625 18.589844 -23.257812 19.914062 -22.652344 C 21.269531 -22.03125 22.441406 -21.136719 23.421875 -19.960938 C 25.128906 -17.925781 25.980469 -15.40625 25.980469 -12.40625 C 25.980469 -9.257812 25.070312 -6.605469 23.257812 -4.445312 C 21.839844 -2.753906 20.171875 -1.484375 18.253906 -0.632812 Z M -0.625 -3.007812 C -1.632812 -4.246094 -2.433594 -5.808594 -3.03125 -7.695312 C -3.578125 -9.421875 -3.851562 -11.183594 -3.851562 -12.984375 C -3.851562 -15.757812 -3.332031 -18.296875 -2.296875 -20.597656 C -1.246094 -22.933594 0.226562 -24.914062 2.125 -26.546875 C 3.921875 -28.089844 6.007812 -29.265625 8.390625 -30.078125 C 10.65625 -30.847656 13.097656 -31.234375 15.714844 -31.234375 C 18.292969 -31.234375 20.71875 -30.851562 22.992188 -30.085938 C 25.421875 -29.265625 27.539062 -28.066406 29.351562 -26.480469 C 31.234375 -24.832031 32.699219 -22.835938 33.742188 -20.488281 C 34.769531 -18.179688 35.28125 -15.625 35.28125 -12.824219 C 35.28125 -11.144531 34.972656 -9.40625 34.355469 -7.609375 C 33.714844 -5.753906 32.886719 -4.210938 31.871094 -2.972656 L 26.542969 -7.359375 L 26.542969 -14.257812 L 35.46875 -14.257812 L 37.53125 -11.886719 C 39.359375 -9.78125 40.277344 -7.011719 40.277344 -3.574219 C 40.277344 -2.164062 40.0625 -0.789062 39.640625 0.554688 C 39.21875 1.894531 38.679688 3.027344 38.03125 3.957031 L 35.96875 6.898438 L -0.242188 6.898438 L -2.003906 5.695312 C -3.652344 4.566406 -4.953125 3.046875 -5.90625 1.140625 C -6.8125 -0.671875 -7.265625 -2.628906 -7.265625 -4.730469 C -7.265625 -6.296875 -7.050781 -7.820312 -6.625 -9.289062 L -5.175781 -14.257812 L 4.730469 -14.257812 L 4.730469 -7.359375 Z M 19.226562 -0.460938 L 0 -0.460938 L 0 -7.359375 L 6.625 -5.425781 C 6.5625 -5.214844 6.53125 -4.984375 6.53125 -4.730469 C 6.53125 -4.800781 6.5 -4.898438 6.433594 -5.03125 C 6.320312 -5.253906 6.105469 -5.476562 5.789062 -5.695312 L 1.890625 0 L 1.890625 -6.898438 L 32.378906 -6.898438 L 32.378906 0 L 26.726562 -3.957031 C 26.597656 -3.773438 26.5 -3.609375 26.4375 -3.464844 C 26.449219 -3.503906 26.464844 -3.546875 26.480469 -3.601562 C 26.476562 -3.589844 26.476562 -3.582031 26.476562 -3.574219 C 26.476562 -3.734375 26.472656 -3.867188 26.457031 -3.96875 L 26.464844 -3.960938 C 26.570312 -3.589844 26.785156 -3.214844 27.117188 -2.832031 L 32.324219 -7.359375 L 32.324219 -0.460938 L 11.921875 -0.460938 L 21.21875 -11.746094 C 21.167969 -11.6875 21.128906 -11.632812 21.097656 -11.585938 L 21.101562 -11.59375 C 21.164062 -11.710938 21.230469 -11.882812 21.308594 -12.101562 C 21.425781 -12.441406 21.484375 -12.683594 21.484375 -12.824219 C 21.484375 -13.671875 21.367188 -14.359375 21.132812 -14.882812 C 20.914062 -15.378906 20.625 -15.78125 20.265625 -16.09375 C 19.835938 -16.472656 19.273438 -16.777344 18.585938 -17.007812 C 17.738281 -17.292969 16.785156 -17.4375 15.714844 -17.4375 C 14.621094 -17.4375 13.664062 -17.296875 12.84375 -17.015625 C 12.140625 -16.777344 11.566406 -16.464844 11.121094 -16.082031 C 10.773438 -15.785156 10.496094 -15.402344 10.285156 -14.933594 C 10.0625 -14.433594 9.949219 -13.78125 9.949219 -12.984375 C 9.949219 -12.605469 10.007812 -12.234375 10.125 -11.859375 C 10.1875 -11.660156 10.242188 -11.511719 10.289062 -11.414062 C 10.257812 -11.484375 10.1875 -11.582031 10.085938 -11.710938 Z M 15.714844 -19.90625 C 14.246094 -19.90625 12.863281 -20.144531 11.570312 -20.625 C 10.128906 -21.15625 8.859375 -21.957031 7.765625 -23.03125 C 6.699219 -24.070312 5.890625 -25.257812 5.332031 -26.597656 C 4.78125 -27.917969 4.507812 -29.320312 4.507812 -30.800781 C 4.507812 -32.332031 4.792969 -33.769531 5.359375 -35.113281 C 5.957031 -36.523438 6.832031 -37.753906 7.984375 -38.808594 C 9.0625 -39.796875 10.285156 -40.539062 11.648438 -41.042969 C 12.929688 -41.511719 14.285156 -41.746094 15.714844 -41.746094 C 17.148438 -41.746094 18.503906 -41.511719 19.785156 -41.042969 C 21.148438 -40.539062 22.367188 -39.796875 23.449219 -38.808594 C 24.597656 -37.753906 25.472656 -36.523438 26.070312 -35.113281 C 26.640625 -33.769531 26.925781 -32.332031 26.925781 -30.800781 C 26.925781 -29.339844 26.660156 -27.953125 26.125 -26.648438 C 25.582031 -25.3125 24.789062 -24.125 23.746094 -23.082031 C 22.644531 -21.980469 21.355469 -21.160156 19.878906 -20.617188 C 18.585938 -20.144531 17.199219 -19.90625 15.714844 -19.90625 Z M 15.714844 -33.707031 C 15.566406 -33.707031 15.367188 -33.660156 15.128906 -33.574219 C 14.703125 -33.417969 14.324219 -33.171875 13.992188 -32.839844 C 13.71875 -32.570312 13.503906 -32.242188 13.347656 -31.851562 C 13.199219 -31.492188 13.125 -31.140625 13.125 -30.800781 C 13.125 -30.460938 13.207031 -30.105469 13.363281 -29.734375 C 13.546875 -29.296875 13.804688 -28.925781 14.132812 -28.628906 C 14.390625 -28.394531 14.6875 -28.214844 15.023438 -28.089844 C 15.28125 -27.996094 15.511719 -27.949219 15.714844 -27.949219 C 15.921875 -27.949219 16.152344 -27.996094 16.40625 -28.089844 C 16.746094 -28.214844 17.042969 -28.394531 17.296875 -28.628906 C 17.625 -28.925781 17.882812 -29.296875 18.066406 -29.734375 C 18.226562 -30.105469 18.304688 -30.460938 18.304688 -30.800781 C 18.304688 -31.160156 18.226562 -31.527344 18.070312 -31.902344 C 17.90625 -32.296875 17.6875 -32.625 17.410156 -32.894531 C 17.105469 -33.195312 16.753906 -33.417969 16.355469 -33.566406 C 16.101562 -33.660156 15.890625 -33.707031 15.714844 -33.707031 Z M 15.714844 -33.707031 "/></g></g></g><g fill="#1649ff" fill-opacity="1"><g transform="translate(176.886721, 64.81946)"><g><path d="M 2.460938 -14.253906 C 2.359375 -14.25 2.210938 -14.199219 2.015625 -14.101562 C 1.75 -13.964844 1.539062 -13.796875 1.390625 -13.601562 C 1.359375 -13.554688 1.335938 -13.519531 1.324219 -13.492188 C 1.335938 -13.523438 1.351562 -13.574219 1.371094 -13.644531 C 1.464844 -13.984375 1.511719 -14.449219 1.511719 -15.03125 C 1.511719 -16.703125 1.476562 -18.160156 1.414062 -19.410156 C 1.347656 -20.703125 1.28125 -21.734375 1.21875 -22.5 L 0.730469 -28.34375 L 6.421875 -29.769531 C 7.40625 -30.011719 8.410156 -30.199219 9.433594 -30.320312 C 10.441406 -30.4375 11.378906 -30.5 12.246094 -30.5 C 13.351562 -30.5 14.394531 -30.40625 15.371094 -30.214844 C 16.96875 -29.90625 18.414062 -29.261719 19.707031 -28.277344 C 20.953125 -27.332031 21.96875 -26.113281 22.757812 -24.621094 C 23.410156 -23.390625 23.886719 -21.929688 24.191406 -20.238281 L 17.398438 -19.027344 L 13.035156 -24.371094 C 15.644531 -26.5 18.484375 -28.21875 21.554688 -29.527344 C 24.890625 -30.945312 28.601562 -31.65625 32.691406 -31.65625 C 35.140625 -31.65625 37.460938 -31.316406 39.652344 -30.636719 C 42.046875 -29.894531 44.152344 -28.765625 45.976562 -27.257812 C 47.882812 -25.679688 49.378906 -23.746094 50.464844 -21.457031 C 51.554688 -19.15625 52.101562 -16.59375 52.101562 -13.769531 C 52.101562 -10.585938 51.410156 -7.652344 50.019531 -4.960938 C 48.65625 -2.308594 46.730469 -0.0625 44.242188 1.78125 C 41.925781 3.5 39.191406 4.796875 36.039062 5.675781 C 33.105469 6.492188 29.851562 6.898438 26.28125 6.898438 C 22.996094 6.898438 19.984375 6.589844 17.238281 5.964844 C 14.511719 5.347656 12.0625 4.53125 9.894531 3.511719 L 12.824219 -2.734375 L 17.175781 2.621094 C 13.664062 5.472656 9.238281 6.898438 3.890625 6.898438 L -0.347656 6.898438 L -2.109375 5.695312 C -3.757812 4.566406 -5.058594 3.046875 -6.011719 1.140625 C -6.917969 -0.671875 -7.371094 -2.628906 -7.371094 -4.730469 C -7.371094 -6.296875 -7.15625 -7.820312 -6.730469 -9.289062 L -5.28125 -14.257812 L 2.734375 -14.257812 L 2.734375 -7.359375 Z M 2.867188 -0.460938 L -0.105469 -0.460938 L -0.105469 -7.359375 L 6.519531 -5.425781 C 6.457031 -5.214844 6.425781 -4.984375 6.425781 -4.730469 C 6.425781 -4.800781 6.394531 -4.898438 6.328125 -5.03125 C 6.214844 -5.253906 6 -5.476562 5.683594 -5.695312 L 1.785156 0 L 1.785156 -6.898438 L 3.890625 -6.898438 C 5.972656 -6.898438 7.5 -7.296875 8.472656 -8.085938 L 11.835938 -10.820312 L 15.757812 -8.980469 C 17.023438 -8.382812 18.53125 -7.890625 20.289062 -7.492188 C 22.03125 -7.097656 24.027344 -6.898438 26.28125 -6.898438 C 28.597656 -6.898438 30.617188 -7.140625 32.339844 -7.621094 C 33.851562 -8.039062 35.074219 -8.597656 36.019531 -9.300781 C 36.789062 -9.871094 37.371094 -10.53125 37.753906 -11.28125 C 38.121094 -11.988281 38.304688 -12.820312 38.304688 -13.769531 C 38.304688 -14.523438 38.199219 -15.113281 37.996094 -15.542969 C 37.785156 -15.988281 37.511719 -16.351562 37.175781 -16.628906 C 36.753906 -16.976562 36.21875 -17.253906 35.5625 -17.457031 C 34.703125 -17.722656 33.746094 -17.855469 32.691406 -17.855469 C 30.476562 -17.855469 28.566406 -17.515625 26.957031 -16.832031 C 25.089844 -16.035156 23.359375 -14.988281 21.761719 -13.683594 L 12.667969 -6.257812 L 10.605469 -17.8125 C 10.570312 -18.023438 10.53125 -18.183594 10.496094 -18.304688 C 10.492188 -18.316406 10.488281 -18.324219 10.484375 -18.332031 C 10.484375 -18.332031 10.488281 -18.324219 10.492188 -18.320312 C 10.507812 -18.273438 10.535156 -18.222656 10.5625 -18.164062 C 10.722656 -17.863281 10.988281 -17.574219 11.355469 -17.292969 C 11.773438 -16.976562 12.238281 -16.765625 12.75 -16.667969 C 12.640625 -16.691406 12.472656 -16.699219 12.246094 -16.699219 C 11.925781 -16.699219 11.53125 -16.671875 11.066406 -16.617188 C 10.617188 -16.5625 10.1875 -16.484375 9.769531 -16.382812 L 8.09375 -23.074219 L 14.96875 -23.648438 C 15.046875 -22.734375 15.121094 -21.554688 15.195312 -20.117188 C 15.269531 -18.632812 15.308594 -16.9375 15.308594 -15.03125 C 15.308594 -11.117188 14.351562 -7.878906 12.429688 -5.320312 C 11.285156 -3.792969 9.878906 -2.609375 8.21875 -1.773438 C 6.632812 -0.976562 4.894531 -0.539062 3.003906 -0.464844 Z M 28.683594 -13.5625 C 28.683594 -13.085938 28.820312 -12.582031 29.09375 -12.042969 C 29.488281 -11.277344 30.042969 -10.683594 30.769531 -10.265625 C 30.886719 -10.195312 30.996094 -10.152344 31.097656 -10.125 L 31.105469 -10.125 C 31.066406 -10.128906 31.015625 -10.128906 30.957031 -10.128906 C 30.523438 -10.128906 30.003906 -10.039062 29.402344 -9.851562 C 28.628906 -9.617188 27.832031 -9.265625 27.015625 -8.800781 C 26.09375 -8.277344 25.191406 -7.652344 24.304688 -6.921875 C 23.464844 -6.226562 22.714844 -5.476562 22.054688 -4.671875 L 16.714844 -9.039062 L 19.464844 -15.367188 C 19.816406 -15.214844 20.457031 -15.046875 21.390625 -14.863281 C 22.367188 -14.667969 23.523438 -14.574219 24.863281 -14.574219 C 25.6875 -14.574219 26.523438 -14.65625 27.371094 -14.816406 C 28.058594 -14.949219 28.640625 -15.128906 29.117188 -15.359375 C 29.292969 -15.445312 29.402344 -15.507812 29.433594 -15.546875 C 29.203125 -15.285156 29.019531 -14.972656 28.886719 -14.617188 C 28.75 -14.261719 28.683594 -13.910156 28.683594 -13.5625 Z M 42.484375 -13.5625 C 42.484375 -12.230469 42.253906 -10.957031 41.796875 -9.742188 C 41.335938 -8.527344 40.667969 -7.421875 39.789062 -6.425781 C 38.527344 -4.992188 36.96875 -3.828125 35.113281 -2.933594 C 33.554688 -2.179688 31.839844 -1.625 29.972656 -1.265625 C 28.261719 -0.9375 26.558594 -0.773438 24.863281 -0.773438 C 22.625 -0.773438 20.574219 -0.957031 18.714844 -1.324219 C 16.808594 -1.703125 15.226562 -2.164062 13.964844 -2.714844 L 5.597656 -6.351562 L 11.375 -13.410156 C 12.605469 -14.917969 13.992188 -16.304688 15.535156 -17.574219 C 17.03125 -18.804688 18.582031 -19.878906 20.1875 -20.792969 C 21.890625 -21.761719 23.617188 -22.515625 25.367188 -23.050781 C 27.285156 -23.636719 29.148438 -23.929688 30.957031 -23.929688 C 33.453125 -23.929688 35.6875 -23.359375 37.664062 -22.21875 C 39.300781 -21.273438 40.542969 -19.972656 41.390625 -18.3125 C 42.117188 -16.878906 42.484375 -15.296875 42.484375 -13.5625 Z M 42.484375 -13.5625 "/></g></g></g><g fill="#1649ff" fill-opacity="1"><g transform="translate(224.186205, 64.81946)"><g><path d="M 10.144531 19.988281 C 8.429688 19.988281 6.875 19.738281 5.488281 19.234375 C 3.84375 18.640625 2.453125 17.753906 1.320312 16.570312 C 0.238281 15.4375 -0.550781 14.144531 -1.054688 12.683594 C -1.484375 11.445312 -1.695312 10.179688 -1.695312 8.882812 C -1.695312 6.6875 -1.300781 4.613281 -0.503906 2.660156 L 1.574219 -2.457031 L 7.019531 -1.550781 C 6.855469 -1.578125 6.6875 -1.589844 6.515625 -1.589844 L 7.148438 -1.589844 C 7.863281 -1.589844 8.578125 -1.664062 9.285156 -1.8125 C 9.972656 -1.957031 10.597656 -2.152344 11.160156 -2.40625 C 11.585938 -2.597656 11.941406 -2.816406 12.238281 -3.0625 C 12.386719 -3.191406 12.503906 -3.328125 12.585938 -3.476562 L 18.605469 -0.105469 L 19.097656 6.777344 C 18.527344 6.816406 17.96875 6.847656 17.417969 6.867188 C 16.859375 6.890625 16.398438 6.898438 16.03125 6.898438 C 13.472656 6.898438 11.074219 6.605469 8.835938 6.015625 C 6.3125 5.351562 4.078125 4.296875 2.140625 2.859375 C 0.00390625 1.269531 -1.652344 -0.742188 -2.824219 -3.183594 C -3.964844 -5.546875 -4.535156 -8.234375 -4.535156 -11.25 C -4.535156 -14.226562 -4.027344 -16.945312 -3.011719 -19.402344 C -1.976562 -21.910156 -0.519531 -24.0625 1.359375 -25.855469 C 3.21875 -27.636719 5.40625 -28.988281 7.910156 -29.914062 C 10.292969 -30.792969 12.824219 -31.234375 15.503906 -31.234375 C 18.492188 -31.234375 21.21875 -30.710938 23.675781 -29.664062 C 26.28125 -28.554688 28.511719 -26.898438 30.359375 -24.695312 C 33.710938 -20.699219 35.386719 -15.304688 35.386719 -8.515625 C 35.386719 -3.867188 34.734375 0.210938 33.429688 3.71875 C 32.074219 7.367188 30.203125 10.410156 27.820312 12.84375 C 25.402344 15.3125 22.609375 17.136719 19.441406 18.316406 C 16.457031 19.429688 13.355469 19.988281 10.144531 19.988281 Z M 10.144531 6.1875 C 11.695312 6.1875 13.1875 5.921875 14.617188 5.386719 C 15.867188 4.921875 16.980469 4.1875 17.960938 3.1875 C 18.976562 2.152344 19.820312 0.726562 20.496094 -1.089844 C 21.226562 -3.046875 21.589844 -5.523438 21.589844 -8.515625 C 21.589844 -11.957031 20.988281 -14.394531 19.785156 -15.828125 C 19.355469 -16.34375 18.847656 -16.722656 18.269531 -16.96875 C 17.539062 -17.28125 16.617188 -17.4375 15.503906 -17.4375 C 14.472656 -17.4375 13.535156 -17.28125 12.695312 -16.96875 C 11.976562 -16.707031 11.375 -16.339844 10.890625 -15.878906 C 10.417969 -15.429688 10.035156 -14.847656 9.742188 -14.132812 C 9.421875 -13.363281 9.265625 -12.402344 9.265625 -11.25 C 9.265625 -10.335938 9.378906 -9.640625 9.605469 -9.167969 C 9.796875 -8.769531 10.050781 -8.453125 10.367188 -8.21875 C 10.882812 -7.835938 11.542969 -7.542969 12.347656 -7.328125 C 13.4375 -7.042969 14.664062 -6.898438 16.03125 -6.898438 C 16.226562 -6.898438 16.519531 -6.90625 16.90625 -6.921875 C 17.300781 -6.933594 17.703125 -6.957031 18.113281 -6.988281 L 30.878906 -7.898438 L 24.625 3.265625 C 23.726562 4.871094 22.566406 6.273438 21.140625 7.480469 C 19.855469 8.5625 18.410156 9.464844 16.804688 10.183594 C 15.332031 10.84375 13.769531 11.347656 12.105469 11.695312 C 10.46875 12.035156 8.816406 12.207031 7.148438 12.207031 L 6.515625 12.207031 C 5.925781 12.207031 5.339844 12.160156 4.753906 12.0625 L 5.886719 5.257812 L 12.277344 7.851562 C 12.160156 8.140625 12.101562 8.484375 12.101562 8.882812 C 12.101562 8.636719 12.066406 8.40625 11.988281 8.183594 C 11.835938 7.738281 11.605469 7.355469 11.292969 7.03125 C 10.933594 6.652344 10.558594 6.394531 10.175781 6.257812 C 10.054688 6.214844 9.960938 6.1875 9.890625 6.175781 C 9.941406 6.183594 10.027344 6.1875 10.144531 6.1875 Z M 12.261719 -8.605469 C 12.28125 -8.699219 12.296875 -8.824219 12.308594 -8.984375 C 12.328125 -9.210938 12.339844 -9.460938 12.339844 -9.722656 C 12.339844 -10.671875 12.292969 -11.351562 12.203125 -11.765625 C 12.179688 -11.882812 12.160156 -11.957031 12.148438 -11.992188 C 12.195312 -11.863281 12.273438 -11.714844 12.390625 -11.539062 C 12.804688 -10.910156 13.414062 -10.414062 14.226562 -10.058594 C 14.671875 -9.859375 15.152344 -9.761719 15.664062 -9.761719 C 16.007812 -9.761719 16.367188 -9.839844 16.734375 -9.996094 C 17.140625 -10.164062 17.480469 -10.394531 17.757812 -10.683594 C 18.132812 -11.078125 18.386719 -11.480469 18.511719 -11.898438 C 18.523438 -11.933594 18.53125 -11.964844 18.535156 -11.988281 L 18.535156 -11.992188 C 18.535156 -11.988281 18.535156 -11.980469 18.53125 -11.972656 C 18.519531 -11.882812 18.515625 -11.761719 18.515625 -11.617188 C 18.515625 -11.582031 18.515625 -11.554688 18.519531 -11.53125 C 18.515625 -11.539062 18.515625 -11.550781 18.511719 -11.570312 C 18.492188 -11.695312 18.453125 -11.835938 18.390625 -11.996094 C 18.152344 -12.609375 17.753906 -13.128906 17.1875 -13.5625 C 16.898438 -13.789062 16.636719 -13.929688 16.40625 -13.988281 C 16.527344 -13.957031 16.75 -13.941406 17.082031 -13.941406 C 17.148438 -13.941406 17.195312 -13.945312 17.226562 -13.945312 C 17.183594 -13.941406 17.125 -13.9375 17.050781 -13.925781 C 17.246094 -13.953125 17.523438 -13.996094 17.894531 -14.058594 L 19.027344 -7.253906 Z M 25.792969 -5.898438 L 24.859375 -1.230469 L 20.160156 -0.449219 C 19.6875 -0.367188 19.300781 -0.308594 19.003906 -0.265625 C 18.433594 -0.183594 17.792969 -0.144531 17.082031 -0.144531 C 13.695312 -0.144531 10.925781 -0.972656 8.777344 -2.625 C 7.300781 -3.761719 6.21875 -5.21875 5.527344 -7.003906 C 4.984375 -8.394531 4.714844 -9.929688 4.714844 -11.617188 C 4.714844 -15.214844 5.738281 -18.082031 7.785156 -20.222656 C 8.835938 -21.320312 10.042969 -22.152344 11.410156 -22.726562 C 12.746094 -23.28125 14.160156 -23.5625 15.664062 -23.5625 C 17.085938 -23.5625 18.457031 -23.269531 19.78125 -22.6875 C 21.46875 -21.945312 22.851562 -20.75 23.929688 -19.101562 C 24.730469 -17.878906 25.320312 -16.402344 25.691406 -14.671875 C 25.988281 -13.300781 26.136719 -11.652344 26.136719 -9.722656 C 26.136719 -9.078125 26.109375 -8.449219 26.058594 -7.835938 C 26.003906 -7.152344 25.914062 -6.507812 25.792969 -5.898438 Z M 25.792969 -5.898438 "/></g></g></g><g fill="#ffffff" fill-opacity="1"><g transform="translate(71.776771, 64.81946)"><g><path d="M 11.875 -13.609375 C 11.875 -11.398438 12.425781 -9.804688 13.53125 -8.828125 C 14.632812 -7.847656 16.03125 -7.359375 17.71875 -7.359375 L 19.875 -7.359375 C 20.570312 -6.554688 20.921875 -5.296875 20.921875 -3.578125 C 20.921875 -2.867188 20.796875 -2.171875 20.546875 -1.484375 C 20.304688 -0.804688 20.046875 -0.3125 19.765625 0 L 17.609375 0 C 12.597656 0 8.847656 -1.117188 6.359375 -3.359375 C 3.867188 -5.609375 2.625 -9.203125 2.625 -14.140625 L 2.625 -31.53125 C 3.007812 -31.601562 3.601562 -31.691406 4.40625 -31.796875 C 5.21875 -31.898438 6.023438 -31.953125 6.828125 -31.953125 C 7.566406 -31.953125 8.242188 -31.898438 8.859375 -31.796875 C 9.472656 -31.691406 10 -31.5 10.4375 -31.21875 C 10.875 -30.9375 11.222656 -30.523438 11.484375 -29.984375 C 11.742188 -29.441406 11.875 -28.75 11.875 -27.90625 Z M 11.875 -13.609375 "/></g></g></g><g fill="#ffffff" fill-opacity="1"><g transform="translate(88.857141, 64.81946)"><g><path d="M 1.78125 0 C 1.113281 -0.457031 0.570312 -1.101562 0.15625 -1.9375 C -0.257812 -2.78125 -0.46875 -3.710938 -0.46875 -4.734375 C -0.46875 -5.640625 -0.347656 -6.515625 -0.109375 -7.359375 L 2.203125 -7.359375 C 2.972656 -7.359375 3.707031 -7.488281 4.40625 -7.75 C 5.113281 -8.007812 5.726562 -8.421875 6.25 -8.984375 C 6.78125 -9.546875 7.203125 -10.28125 7.515625 -11.1875 C 7.828125 -12.101562 7.984375 -13.207031 7.984375 -14.5 C 7.984375 -15.3125 7.972656 -16.242188 7.953125 -17.296875 C 7.941406 -18.347656 7.898438 -19.222656 7.828125 -19.921875 C 8.535156 -20.097656 9.203125 -20.238281 9.828125 -20.34375 C 10.460938 -20.445312 11.128906 -20.5 11.828125 -20.5 C 13.722656 -20.5 15.109375 -20.101562 15.984375 -19.3125 C 16.859375 -18.53125 17.296875 -16.984375 17.296875 -14.671875 C 17.296875 -12.492188 17 -10.457031 16.40625 -8.5625 C 16.851562 -8.21875 17.566406 -7.929688 18.546875 -7.703125 C 19.535156 -7.472656 20.429688 -7.359375 21.234375 -7.359375 L 22.5 -7.359375 C 23.195312 -6.554688 23.546875 -5.296875 23.546875 -3.578125 C 23.546875 -2.867188 23.441406 -2.179688 23.234375 -1.515625 C 23.023438 -0.859375 22.796875 -0.351562 22.546875 0 L 22.1875 0 C 18.007812 0 14.816406 -0.894531 12.609375 -2.6875 C 10.441406 -0.894531 7.640625 0 4.203125 0 Z M 11.875 -23.125 C 10.582031 -23.125 9.539062 -23.507812 8.75 -24.28125 C 7.957031 -25.050781 7.5625 -26 7.5625 -27.125 C 7.5625 -28.3125 7.972656 -29.28125 8.796875 -30.03125 C 9.628906 -30.789062 10.65625 -31.171875 11.875 -31.171875 C 13.101562 -31.171875 14.128906 -30.789062 14.953125 -30.03125 C 15.773438 -29.28125 16.1875 -28.3125 16.1875 -27.125 C 16.1875 -26 15.800781 -25.050781 15.03125 -24.28125 C 14.257812 -23.507812 13.207031 -23.125 11.875 -23.125 Z M 11.875 -23.125 "/></g></g></g><g fill="#ffffff" fill-opacity="1"><g transform="translate(109.458688, 64.81946)"><g><path d="M 2.734375 -7.359375 C 4.515625 -7.359375 5.90625 -8.039062 6.90625 -9.40625 C 7.90625 -10.769531 8.40625 -12.644531 8.40625 -15.03125 C 8.40625 -16.820312 8.367188 -18.398438 8.296875 -19.765625 C 8.234375 -21.128906 8.164062 -22.234375 8.09375 -23.078125 C 8.789062 -23.253906 9.507812 -23.382812 10.25 -23.46875 C 10.988281 -23.550781 11.65625 -23.59375 12.25 -23.59375 C 13.09375 -23.59375 13.851562 -23.503906 14.53125 -23.328125 C 15.21875 -23.160156 15.8125 -22.769531 16.3125 -22.15625 C 16.820312 -21.539062 17.207031 -20.660156 17.46875 -19.515625 C 17.738281 -18.378906 17.875 -16.867188 17.875 -14.984375 C 17.875 -10.179688 16.632812 -6.484375 14.15625 -3.890625 C 11.6875 -1.296875 8.265625 0 3.890625 0 L 1.78125 0 C 1.113281 -0.457031 0.570312 -1.101562 0.15625 -1.9375 C -0.257812 -2.78125 -0.46875 -3.710938 -0.46875 -4.734375 C -0.46875 -5.640625 -0.347656 -6.515625 -0.109375 -7.359375 Z M 14.296875 -26.8125 C 13.035156 -26.8125 12.019531 -27.195312 11.25 -27.96875 C 10.476562 -28.738281 10.09375 -29.679688 10.09375 -30.796875 C 10.09375 -31.992188 10.492188 -32.96875 11.296875 -33.71875 C 12.109375 -34.46875 13.109375 -34.84375 14.296875 -34.84375 C 15.523438 -34.84375 16.53125 -34.46875 17.3125 -33.71875 C 18.101562 -32.96875 18.5 -31.992188 18.5 -30.796875 C 18.5 -29.679688 18.128906 -28.738281 17.390625 -27.96875 C 16.660156 -27.195312 15.628906 -26.8125 14.296875 -26.8125 Z M 4.359375 -26.8125 C 3.097656 -26.8125 2.082031 -27.195312 1.3125 -27.96875 C 0.539062 -28.738281 0.15625 -29.679688 0.15625 -30.796875 C 0.15625 -31.992188 0.554688 -32.96875 1.359375 -33.71875 C 2.171875 -34.46875 3.171875 -34.84375 4.359375 -34.84375 C 5.585938 -34.84375 6.59375 -34.46875 7.375 -33.71875 C 8.164062 -32.96875 8.5625 -31.992188 8.5625 -30.796875 C 8.5625 -29.679688 8.191406 -28.738281 7.453125 -27.96875 C 6.722656 -27.195312 5.691406 -26.8125 4.359375 -26.8125 Z M 4.359375 -26.8125 "/></g></g></g><g fill="#ffffff" fill-opacity="1"><g transform="translate(129.429576, 64.81946)"><g><path d="M 11.875 -13.609375 C 11.875 -11.398438 12.425781 -9.804688 13.53125 -8.828125 C 14.632812 -7.847656 16.03125 -7.359375 17.71875 -7.359375 L 19.875 -7.359375 C 20.570312 -6.554688 20.921875 -5.296875 20.921875 -3.578125 C 20.921875 -2.867188 20.796875 -2.171875 20.546875 -1.484375 C 20.304688 -0.804688 20.046875 -0.3125 19.765625 0 L 17.609375 0 C 12.597656 0 8.847656 -1.117188 6.359375 -3.359375 C 3.867188 -5.609375 2.625 -9.203125 2.625 -14.140625 L 2.625 -31.53125 C 3.007812 -31.601562 3.601562 -31.691406 4.40625 -31.796875 C 5.21875 -31.898438 6.023438 -31.953125 6.828125 -31.953125 C 7.566406 -31.953125 8.242188 -31.898438 8.859375 -31.796875 C 9.472656 -31.691406 10 -31.5 10.4375 -31.21875 C 10.875 -30.9375 11.222656 -30.523438 11.484375 -29.984375 C 11.742188 -29.441406 11.875 -28.75 11.875 -27.90625 Z M 11.875 -13.609375 "/></g></g></g><g fill="#ffffff" fill-opacity="1"><g transform="translate(146.509946, 64.81946)"><g><path d="M 15.453125 -6.9375 C 16.398438 -7.351562 17.238281 -8 17.96875 -8.875 C 18.707031 -9.757812 19.078125 -10.9375 19.078125 -12.40625 C 19.078125 -13.738281 18.757812 -14.78125 18.125 -15.53125 C 17.5 -16.28125 16.675781 -16.65625 15.65625 -16.65625 C 14.644531 -16.65625 13.753906 -16.3125 12.984375 -15.625 C 12.210938 -14.945312 11.828125 -13.875 11.828125 -12.40625 C 11.828125 -11.144531 12.175781 -10.015625 12.875 -9.015625 C 13.570312 -8.015625 14.429688 -7.320312 15.453125 -6.9375 Z M 4.734375 -7.359375 C 4.273438 -7.921875 3.878906 -8.726562 3.546875 -9.78125 C 3.210938 -10.832031 3.046875 -11.898438 3.046875 -12.984375 C 3.046875 -14.765625 3.359375 -16.359375 3.984375 -17.765625 C 4.617188 -19.171875 5.5 -20.351562 6.625 -21.3125 C 7.75 -22.28125 9.082031 -23.023438 10.625 -23.546875 C 12.164062 -24.078125 13.863281 -24.34375 15.71875 -24.34375 C 17.539062 -24.34375 19.226562 -24.078125 20.78125 -23.546875 C 22.34375 -23.023438 23.679688 -22.269531 24.796875 -21.28125 C 25.921875 -20.300781 26.800781 -19.101562 27.4375 -17.6875 C 28.070312 -16.269531 28.390625 -14.648438 28.390625 -12.828125 C 28.390625 -11.910156 28.203125 -10.914062 27.828125 -9.84375 C 27.460938 -8.78125 27.035156 -7.953125 26.546875 -7.359375 L 32.328125 -7.359375 C 33.023438 -6.554688 33.375 -5.296875 33.375 -3.578125 C 33.375 -2.867188 33.269531 -2.179688 33.0625 -1.515625 C 32.851562 -0.859375 32.625 -0.351562 32.375 0 L 1.890625 0 C 1.222656 -0.457031 0.675781 -1.101562 0.25 -1.9375 C -0.164062 -2.78125 -0.375 -3.710938 -0.375 -4.734375 C -0.375 -5.640625 -0.25 -6.515625 0 -7.359375 Z M 15.71875 -26.8125 C 14.414062 -26.8125 13.367188 -27.195312 12.578125 -27.96875 C 11.796875 -28.738281 11.40625 -29.679688 11.40625 -30.796875 C 11.40625 -31.992188 11.816406 -32.96875 12.640625 -33.71875 C 13.460938 -34.46875 14.488281 -34.84375 15.71875 -34.84375 C 16.945312 -34.84375 17.972656 -34.46875 18.796875 -33.71875 C 19.617188 -32.96875 20.03125 -31.992188 20.03125 -30.796875 C 20.03125 -29.679688 19.644531 -28.738281 18.875 -27.96875 C 18.101562 -27.195312 17.050781 -26.8125 15.71875 -26.8125 Z M 15.71875 -26.8125 "/></g></g></g><g fill="#ffffff" fill-opacity="1"><g transform="translate(176.886721, 64.81946)"><g><path d="M 2.734375 -7.359375 C 4.515625 -7.429688 5.90625 -8.128906 6.90625 -9.453125 C 7.90625 -10.785156 8.40625 -12.644531 8.40625 -15.03125 C 8.40625 -16.820312 8.367188 -18.398438 8.296875 -19.765625 C 8.234375 -21.128906 8.164062 -22.234375 8.09375 -23.078125 C 8.789062 -23.253906 9.507812 -23.382812 10.25 -23.46875 C 10.988281 -23.550781 11.65625 -23.59375 12.25 -23.59375 C 12.914062 -23.59375 13.519531 -23.539062 14.0625 -23.4375 C 14.601562 -23.332031 15.09375 -23.113281 15.53125 -22.78125 C 15.96875 -22.445312 16.34375 -21.984375 16.65625 -21.390625 C 16.976562 -20.796875 17.222656 -20.007812 17.390625 -19.03125 C 19.492188 -20.75 21.78125 -22.128906 24.25 -23.171875 C 26.726562 -24.222656 29.539062 -24.75 32.6875 -24.75 C 34.445312 -24.75 36.085938 -24.515625 37.609375 -24.046875 C 39.128906 -23.578125 40.453125 -22.875 41.578125 -21.9375 C 42.703125 -21.007812 43.585938 -19.863281 44.234375 -18.5 C 44.878906 -17.132812 45.203125 -15.554688 45.203125 -13.765625 C 45.203125 -11.703125 44.765625 -9.820312 43.890625 -8.125 C 43.015625 -6.425781 41.757812 -4.96875 40.125 -3.75 C 38.5 -2.539062 36.519531 -1.613281 34.1875 -0.96875 C 31.863281 -0.320312 29.226562 0 26.28125 0 C 23.507812 0 21.003906 -0.253906 18.765625 -0.765625 C 16.523438 -1.273438 14.546875 -1.929688 12.828125 -2.734375 C 10.585938 -0.910156 7.609375 0 3.890625 0 L 1.78125 0 C 1.113281 -0.457031 0.570312 -1.101562 0.15625 -1.9375 C -0.257812 -2.78125 -0.46875 -3.710938 -0.46875 -4.734375 C -0.46875 -5.640625 -0.347656 -6.515625 -0.109375 -7.359375 Z M 35.578125 -13.5625 C 35.578125 -14.820312 35.117188 -15.710938 34.203125 -16.234375 C 33.296875 -16.765625 32.210938 -17.03125 30.953125 -17.03125 C 29.835938 -17.03125 28.648438 -16.835938 27.390625 -16.453125 C 26.128906 -16.066406 24.863281 -15.515625 23.59375 -14.796875 C 22.332031 -14.078125 21.109375 -13.226562 19.921875 -12.25 C 18.734375 -11.269531 17.664062 -10.203125 16.71875 -9.046875 C 17.519531 -8.691406 18.628906 -8.375 20.046875 -8.09375 C 21.472656 -7.8125 23.078125 -7.671875 24.859375 -7.671875 C 26.117188 -7.671875 27.390625 -7.789062 28.671875 -8.03125 C 29.953125 -8.28125 31.097656 -8.648438 32.109375 -9.140625 C 33.128906 -9.628906 33.960938 -10.242188 34.609375 -10.984375 C 35.253906 -11.722656 35.578125 -12.582031 35.578125 -13.5625 Z M 35.578125 -13.5625 "/></g></g></g><g fill="#ffffff" fill-opacity="1"><g transform="translate(224.186205, 64.81946)"><g><path d="M 10.140625 13.09375 C 9.234375 13.09375 8.460938 12.976562 7.828125 12.75 C 7.203125 12.519531 6.695312 12.203125 6.3125 11.796875 C 5.925781 11.398438 5.644531 10.945312 5.46875 10.4375 C 5.289062 9.925781 5.203125 9.410156 5.203125 8.890625 C 5.203125 7.585938 5.429688 6.375 5.890625 5.25 C 6.097656 5.289062 6.304688 5.3125 6.515625 5.3125 C 6.722656 5.3125 6.9375 5.3125 7.15625 5.3125 C 8.34375 5.3125 9.519531 5.1875 10.6875 4.9375 C 11.863281 4.695312 12.957031 4.347656 13.96875 3.890625 C 14.988281 3.429688 15.894531 2.867188 16.6875 2.203125 C 17.476562 1.535156 18.117188 0.765625 18.609375 -0.109375 C 18.117188 -0.0664062 17.632812 -0.0351562 17.15625 -0.015625 C 16.6875 -0.00390625 16.3125 0 16.03125 0 C 14.070312 0 12.257812 -0.21875 10.59375 -0.65625 C 8.925781 -1.09375 7.476562 -1.765625 6.25 -2.671875 C 5.03125 -3.585938 4.078125 -4.753906 3.390625 -6.171875 C 2.703125 -7.597656 2.359375 -9.289062 2.359375 -11.25 C 2.359375 -13.3125 2.691406 -15.148438 3.359375 -16.765625 C 4.023438 -18.378906 4.945312 -19.742188 6.125 -20.859375 C 7.300781 -21.984375 8.691406 -22.84375 10.296875 -23.4375 C 11.910156 -24.039062 13.644531 -24.34375 15.5 -24.34375 C 19.601562 -24.34375 22.789062 -22.984375 25.0625 -20.265625 C 27.34375 -17.546875 28.484375 -13.628906 28.484375 -8.515625 C 28.484375 -4.691406 27.972656 -1.414062 26.953125 1.3125 C 25.941406 4.039062 24.585938 6.273438 22.890625 8.015625 C 21.191406 9.753906 19.238281 11.035156 17.03125 11.859375 C 14.820312 12.679688 12.523438 13.09375 10.140625 13.09375 Z M 19.03125 -7.25 C 19.09375 -7.601562 19.140625 -7.988281 19.171875 -8.40625 C 19.210938 -8.832031 19.234375 -9.269531 19.234375 -9.71875 C 19.234375 -11.15625 19.132812 -12.320312 18.9375 -13.21875 C 18.75 -14.113281 18.488281 -14.8125 18.15625 -15.3125 C 17.820312 -15.820312 17.4375 -16.171875 17 -16.359375 C 16.5625 -16.554688 16.113281 -16.65625 15.65625 -16.65625 C 14.5 -16.65625 13.535156 -16.253906 12.765625 -15.453125 C 11.992188 -14.648438 11.609375 -13.367188 11.609375 -11.609375 C 11.609375 -9.960938 12.0625 -8.789062 12.96875 -8.09375 C 13.882812 -7.394531 15.253906 -7.046875 17.078125 -7.046875 C 17.460938 -7.046875 17.773438 -7.0625 18.015625 -7.09375 C 18.265625 -7.132812 18.601562 -7.1875 19.03125 -7.25 Z M 19.03125 -7.25 "/></g></g></g></svg>